Antonio.ufo
<glyph name="exclam" format="1">
  <advance width="536"/>
  <unicode hex="0021"/>
  <outline>
    <contour>
      <point x="365" y="211" type="line"/>
      <point x="167" y="211" type="line"/>
      <point x="167" y="0" type="line"/>
      <point x="365" y="0" type="line"/>
    </contour>
    <contour>
      <point x="301" y="377" type="line"/>
      <point x="370" y="1760" type="line"/>
      <point x="166" y="1760" type="line"/>
      <point x="233" y="377" type="line"/>
    </contour>
  </outline>
</glyph>
<glyph name="quotedbl" format="1">
  <advance width="944"/>
  <unicode hex="0022"/>
  <outline>
    <contour>
      <point x="535" y="1761" type="line"/>
      <point x="595" y="1125" type="line"/>
      <point x="641" y="1125" type="line"/>
      <point x="706" y="1761" type="line"/>
    </contour>
    <contour>
      <point x="251" y="1761" type="line"/>
      <point x="311" y="1125" type="line"/>
      <point x="357" y="1125" type="line"/>
      <point x="422" y="1761" type="line"/>
    </contour>
  </outline>
</glyph>
<glyph name="numbersign" format="1">
  <advance width="1288"/>
  <unicode hex="0023"/>
  <outline>
    <contour>
      <point x="476" y="655" type="line"/>
      <point x="688" y="655" type="line"/>
      <point x="560" y="0" type="line"/>
      <point x="703" y="0" type="line"/>
      <point x="833" y="655" type="line"/>
      <point x="1041" y="655" type="line"/>
      <point x="1041" y="765" type="line"/>
      <point x="855" y="765" type="line"/>
      <point x="909" y="1039" type="line"/>
      <point x="1088" y="1039" type="line"/>
      <point x="1088" y="1149" type="line"/>
      <point x="931" y="1149" type="line"/>
      <point x="1052" y="1761" type="line"/>
      <point x="908" y="1761" type="line"/>
      <point x="785" y="1149" type="line"/>
      <point x="574" y="1149" type="line"/>
      <point x="697" y="1761" type="line"/>
      <point x="553" y="1761" type="line"/>
      <point x="432" y="1149" type="line"/>
      <point x="221" y="1149" type="line"/>
      <point x="221" y="1039" type="line"/>
      <point x="410" y="1039" type="line"/>
      <point x="356" y="765" type="line"/>
      <point x="174" y="765" type="line"/>
      <point x="174" y="655" type="line"/>
      <point x="334" y="655" type="line"/>
      <point x="205" y="0" type="line"/>
      <point x="348" y="0" type="line"/>
    </contour>
    <contour>
      <point x="551" y="1034" type="line"/>
      <point x="765" y="1034" type="line"/>
      <point x="712" y="763" type="line"/>
      <point x="497" y="763" type="line"/>
    </contour>
  </outline>
</glyph>
<glyph name="dollar" format="1">
  <advance width="867"/>
  <unicode hex="0024"/>
  <outline>
    <contour>
      <point x="399" y="-263" type="line"/>
      <point x="512" y="-263" type="line"/>
      <point x="512" y="23" type="line"/>
      <point x="399" y="23" type="line"/>
    </contour>
    <contour>
      <point x="380" y="1474" type="line"/>
      <point x="493" y="1474" type="line"/>
      <point x="493" y="1760" type="line"/>
      <point x="380" y="1760" type="line"/>
    </contour>
    <component base="s" yOffset="2"/>
  </outline>
</glyph>
<glyph name="percent" format="1">
  <advance width="2158"/>
  <unicode hex="0025"/>
  <outline>
    <contour>
      <point x="465" y="726" type="curve" smooth="yes"/>
      <point x="393" y="726"/>
      <point x="332" y="748"/>
      <point x="332" y="936" type="curve" smooth="yes"/>
      <point x="332" y="1435" type="line" smooth="yes"/>
      <point x="332" y="1610"/>
      <point x="387" y="1638"/>
      <point x="465" y="1638" type="curve" smooth="yes"/>
      <point x="543" y="1638"/>
      <point x="598" y="1614"/>
      <point x="598" y="1435" type="curve" smooth="yes"/>
      <point x="598" y="936" type="line" smooth="yes"/>
      <point x="598" y="751"/>
      <point x="537" y="726"/>
    </contour>
    <contour>
      <point x="465" y="581" type="curve" smooth="yes"/>
      <point x="714" y="581"/>
      <point x="758" y="756"/>
      <point x="758" y="1011" type="curve" smooth="yes"/>
      <point x="758" y="1364" type="line" smooth="yes"/>
      <point x="758" y="1633"/>
      <point x="728" y="1782"/>
      <point x="465" y="1782" type="curve" smooth="yes"/>
      <point x="202" y="1782"/>
      <point x="172" y="1633"/>
      <point x="172" y="1364" type="curve" smooth="yes"/>
      <point x="172" y="1011" type="line" smooth="yes"/>
      <point x="172" y="756"/>
      <point x="217" y="581"/>
    </contour>
    <contour>
      <point x="1693" y="125" type="curve" smooth="yes"/>
      <point x="1621" y="125"/>
      <point x="1560" y="147"/>
      <point x="1560" y="335" type="curve" smooth="yes"/>
      <point x="1560" y="834" type="line" smooth="yes"/>
      <point x="1560" y="1009"/>
      <point x="1615" y="1037"/>
      <point x="1693" y="1037" type="curve" smooth="yes"/>
      <point x="1771" y="1037"/>
      <point x="1826" y="1013"/>
      <point x="1826" y="834" type="curve" smooth="yes"/>
      <point x="1826" y="335" type="line" smooth="yes"/>
      <point x="1826" y="150"/>
      <point x="1765" y="125"/>
    </contour>
    <contour>
      <point x="1693" y="-20" type="curve" smooth="yes"/>
      <point x="1942" y="-20"/>
      <point x="1986" y="155"/>
      <point x="1986" y="410" type="curve" smooth="yes"/>
      <point x="1986" y="763" type="line" smooth="yes"/>
      <point x="1986" y="1032"/>
      <point x="1956" y="1181"/>
      <point x="1693" y="1181" type="curve" smooth="yes"/>
      <point x="1430" y="1181"/>
      <point x="1400" y="1032"/>
      <point x="1400" y="763" type="curve" smooth="yes"/>
      <point x="1400" y="410" type="line" smooth="yes"/>
      <point x="1400" y="155"/>
      <point x="1445" y="-20"/>
    </contour>
    <contour>
      <point x="645" y="0" type="line"/>
      <point x="804" y="0" type="line"/>
      <point x="1518" y="1760" type="line"/>
      <point x="1368" y="1760" type="line"/>
    </contour>
  </outline>
</glyph>
<glyph name="ampersand" format="1">
  <advance width="937"/>
  <unicode hex="0026"/>
  <outline>
    <contour>
      <point x="369" y="-20" type="curve" smooth="yes"/>
      <point x="736" y="-20"/>
      <point x="698" y="385"/>
      <point x="946" y="690" type="curve"/>
      <point x="871" y="809" type="line"/>
      <point x="603" y="491"/>
      <point x="593" y="122"/>
      <point x="391" y="122" type="curve" smooth="yes"/>
      <point x="258" y="122"/>
      <point x="217" y="229"/>
      <point x="227" y="379" type="curve" smooth="yes"/>
      <point x="254" y="804"/>
      <point x="752" y="1025"/>
      <point x="752" y="1434" type="curve" smooth="yes"/>
      <point x="752" y="1654"/>
      <point x="699.0" y="1782.0"/>
      <point x="473.0" y="1782.0" type="curve"/>
      <point x="283.0" y="1782.0"/>
      <point x="181" y="1668"/>
      <point x="181" y="1441" type="curve"/>
      <point x="181" y="1190"/>
      <point x="685" y="256"/>
      <point x="791" y="0" type="curve"/>
      <point x="935" y="0" type="line"/>
      <point x="779" y="358"/>
      <point x="343" y="1200"/>
      <point x="343" y="1441" type="curve" smooth="yes"/>
      <point x="343" y="1515"/>
      <point x="332.0" y="1653.0"/>
      <point x="479.0" y="1653.0" type="curve" smooth="yes"/>
      <point x="588.0" y="1653.0"/>
      <point x="605" y="1584"/>
      <point x="605" y="1450" type="curve" smooth="yes"/>
      <point x="605" y="1016"/>
      <point x="62" y="875"/>
      <point x="62" y="357" type="curve" smooth="yes"/>
      <point x="62" y="100"/>
      <point x="192" y="-20"/>
    </contour>
  </outline>
</glyph>
<glyph name="parenleft" format="1">
  <advance width="535"/>
  <unicode hex="0028"/>
  <outline>
    <contour>
      <point x="439" y="-105" type="curve"/>
      <point x="439" y="22" type="line"/>
      <point x="319" y="22"/>
      <point x="300" y="23"/>
      <point x="300" y="309" type="curve" smooth="yes"/>
      <point x="300" y="1390" type="line" smooth="yes"/>
      <point x="300" y="1676"/>
      <point x="319" y="1677"/>
      <point x="439" y="1677" type="curve"/>
      <point x="439" y="1804" type="line"/>
      <point x="192" y="1804"/>
      <point x="132" y="1749"/>
      <point x="132" y="1386" type="curve" smooth="yes"/>
      <point x="132" y="313" type="line" smooth="yes"/>
      <point x="132" y="-50"/>
      <point x="192" y="-105"/>
    </contour>
  </outline>
</glyph>
<glyph name="parenright" format="1">
  <advance width="535"/>
  <unicode hex="0029"/>
  <outline>
    <contour>
      <point x="235" y="1390" type="curve" smooth="yes"/>
      <point x="235" y="309" type="line" smooth="yes"/>
      <point x="235" y="23"/>
      <point x="216" y="22"/>
      <point x="96" y="22" type="curve"/>
      <point x="96" y="-105" type="line"/>
      <point x="343" y="-105"/>
      <point x="403" y="-50"/>
      <point x="403" y="313" type="curve" smooth="yes"/>
      <point x="403" y="1386" type="line" smooth="yes"/>
      <point x="403" y="1749"/>
      <point x="343" y="1804"/>
      <point x="96" y="1804" type="curve"/>
      <point x="96" y="1677" type="line"/>
      <point x="216" y="1677"/>
      <point x="235" y="1676"/>
    </contour>
  </outline>
</glyph>
<glyph name="comma" format="1">
  <advance width="445"/>
  <unicode hex="002C"/>
  <outline>
    <contour>
      <point x="198" y="-278" type="line"/>
      <point x="269" y="-278" type="line"/>
      <point x="350" y="9" type="line"/>
      <point x="350" y="204" type="line"/>
      <point x="140" y="204" type="line"/>
      <point x="140" y="0" type="line"/>
      <point x="243" y="0" type="line"/>
    </contour>
  </outline>
</glyph>
<glyph name="period" format="1">
  <advance width="532"/>
  <unicode hex="002E"/>
  <outline>
    <contour>
      <point x="155" y="0" type="line"/>
      <point x="346" y="0" type="line"/>
      <point x="346" y="278" type="line"/>
      <point x="155" y="278" type="line"/>
    </contour>
  </outline>
</glyph>
<glyph name="zero" format="1">
  <advance width="856"/>
  <unicode hex="0030"/>
  <outline>
    <contour>
      <point x="424.0" y="119.0" type="curve" smooth="yes"/>
      <point x="342.0" y="119.0"/>
      <point x="268" y="119"/>
      <point x="268" y="470" type="curve" smooth="yes"/>
      <point x="268" y="1328" type="line" smooth="yes"/>
      <point x="268" y="1639"/>
      <point x="356.0" y="1640.0"/>
      <point x="424.0" y="1640.0" type="curve" smooth="yes"/>
      <point x="494.0" y="1640.0"/>
      <point x="588" y="1639"/>
      <point x="588" y="1327" type="curve" smooth="yes"/>
      <point x="588" y="470" type="line" smooth="yes"/>
      <point x="588" y="119"/>
      <point x="501.0" y="119.0"/>
    </contour>
    <contour>
      <point x="426.0" y="-21.0" type="curve" smooth="yes"/>
      <point x="714.0" y="-21.0"/>
      <point x="756" y="162"/>
      <point x="756" y="475" type="curve" smooth="yes"/>
      <point x="756" y="1316" type="line" smooth="yes"/>
      <point x="756" y="1619"/>
      <point x="708.0" y="1781.0"/>
      <point x="426.0" y="1781.0" type="curve" smooth="yes"/>
      <point x="144.0" y="1781.0"/>
      <point x="100" y="1619"/>
      <point x="100" y="1316" type="curve" smooth="yes"/>
      <point x="100" y="475" type="line" smooth="yes"/>
      <point x="100" y="162"/>
      <point x="138.0" y="-21.0"/>
    </contour>
  </outline>
</glyph>
<glyph name="one" format="1">
  <advance width="626"/>
  <unicode hex="0031"/>
  <outline>
    <contour>
      <point x="269" y="0" type="line"/>
      <point x="437" y="0" type="line"/>
      <point x="437" y="1761" type="line"/>
      <point x="329" y="1761" type="line"/>
      <point x="273" y="1629"/>
      <point x="157" y="1556"/>
      <point x="51" y="1541" type="curve"/>
      <point x="51" y="1431" type="line"/>
      <point x="125" y="1431"/>
      <point x="221" y="1460"/>
      <point x="269" y="1517" type="curve"/>
    </contour>
  </outline>
</glyph>
<glyph name="two" format="1">
  <advance width="876"/>
  <unicode hex="0032"/>
  <outline>
    <contour>
      <point x="209" y="0" type="line"/>
      <point x="760" y="0" type="line"/>
      <point x="760" y="120" type="line"/>
      <point x="376" y="120" type="line"/>
      <point x="429" y="574"/>
      <point x="771" y="823"/>
      <point x="771" y="1293" type="curve" smooth="yes"/>
      <point x="771" y="1521"/>
      <point x="738" y="1781"/>
      <point x="515" y="1781" type="curve" smooth="yes"/>
      <point x="218" y="1781"/>
      <point x="203" y="1553"/>
      <point x="203" y="1173" type="curve" smooth="yes"/>
      <point x="203" y="1065" type="line"/>
      <point x="371" y="1065" type="line"/>
      <point x="371" y="1297" type="line" smooth="yes"/>
      <point x="371" y="1592"/>
      <point x="429" y="1633"/>
      <point x="495" y="1633" type="curve" smooth="yes"/>
      <point x="559" y="1633"/>
      <point x="603" y="1590"/>
      <point x="603" y="1313" type="curve" smooth="yes"/>
      <point x="603" y="1191"/>
      <point x="580" y="1026"/>
      <point x="539" y="942" type="curve" smooth="yes"/>
      <point x="417" y="689" type="line" smooth="yes"/>
      <point x="310" y="467"/>
      <point x="209" y="220"/>
      <point x="209" y="94" type="curve" smooth="yes"/>
    </contour>
  </outline>
</glyph>
<glyph name="three" format="1">
  <advance width="876"/>
  <unicode hex="0033"/>
  <outline>
    <contour>
      <point x="469" y="-21" type="curve" smooth="yes"/>
      <point x="701" y="-21"/>
      <point x="801.0" y="141.0"/>
      <point x="801.0" y="474.0" type="curve"/>
      <point x="801.0" y="671.0"/>
      <point x="752.0" y="861.0"/>
      <point x="625.0" y="918.0" type="curve"/>
      <point x="752.0" y="966.0"/>
      <point x="807.0" y="1120.0"/>
      <point x="807.0" y="1320.0" type="curve"/>
      <point x="807.0" y="1623.0"/>
      <point x="712.0" y="1781.0"/>
      <point x="480.0" y="1781.0" type="curve" smooth="yes"/>
      <point x="248.0" y="1781.0"/>
      <point x="162" y="1623"/>
      <point x="162" y="1320" type="curve" smooth="yes"/>
      <point x="162" y="1283" type="line"/>
      <point x="330" y="1283" type="line"/>
      <point x="330" y="1317" type="line" smooth="yes"/>
      <point x="330" y="1579"/>
      <point x="390.0" y="1640.0"/>
      <point x="478.0" y="1640.0" type="curve" smooth="yes"/>
      <point x="568.0" y="1640.0"/>
      <point x="639.0" y="1593.0"/>
      <point x="639.0" y="1321.0" type="curve"/>
      <point x="639.0" y="1030.0"/>
      <point x="572.0" y="990.0"/>
      <point x="428.0" y="990.0" type="curve" smooth="yes"/>
      <point x="385.0" y="990.0" type="line"/>
      <point x="385.0" y="850.0" type="line"/>
      <point x="430.0" y="850.0" type="line" smooth="yes"/>
      <point x="577.0" y="850.0"/>
      <point x="633.0" y="765.0"/>
      <point x="633.0" y="477.0" type="curve"/>
      <point x="633.0" y="215.0"/>
      <point x="599" y="120"/>
      <point x="471" y="120" type="curve" smooth="yes"/>
      <point x="341" y="120"/>
      <point x="324" y="201"/>
      <point x="324" y="473" type="curve"/>
      <point x="324" y="529" type="line"/>
      <point x="156" y="529" type="line"/>
      <point x="156" y="474" type="line" smooth="yes"/>
      <point x="156" y="141"/>
      <point x="237" y="-21"/>
    </contour>
  </outline>
</glyph>
<glyph name="four" format="1">
  <advance width="856"/>
  <unicode hex="0034"/>
  <outline>
    <contour>
      <point x="504" y="-1" type="line"/>
      <point x="660" y="-1" type="line"/>
      <point x="660" y="345" type="line"/>
      <point x="811" y="345" type="line"/>
      <point x="811" y="477" type="line"/>
      <point x="660" y="477" type="line"/>
      <point x="660" y="1761" type="line"/>
      <point x="493" y="1761" type="line"/>
      <point x="100" y="458" type="line"/>
      <point x="100" y="345" type="line"/>
      <point x="504" y="345" type="line"/>
    </contour>
    <contour>
      <point x="247" y="477" type="line"/>
      <point x="504" y="1423" type="line"/>
      <point x="504" y="477" type="line"/>
    </contour>
  </outline>
</glyph>
<glyph name="five" format="1">
  <advance width="856"/>
  <unicode hex="0035"/>
  <outline>
    <contour>
      <point x="132" y="138"/>
      <point x="187" y="-20"/>
      <point x="412" y="-20" type="curve" smooth="yes"/>
      <point x="666" y="-20"/>
      <point x="684" y="149"/>
      <point x="684" y="668" type="curve" smooth="yes"/>
      <point x="684" y="1148"/>
      <point x="595" y="1225"/>
      <point x="445" y="1225" type="curve" smooth="yes"/>
      <point x="388" y="1225"/>
      <point x="327" y="1202"/>
      <point x="307" y="1163" type="curve"/>
      <point x="307" y="1607" type="line"/>
      <point x="645" y="1607" type="line"/>
      <point x="645" y="1760" type="line"/>
      <point x="154" y="1760" type="line"/>
      <point x="154" y="902" type="line"/>
      <point x="296" y="882" type="line"/>
      <point x="296" y="1018"/>
      <point x="347" y="1080"/>
      <point x="414" y="1080" type="curve" smooth="yes"/>
      <point x="497" y="1080"/>
      <point x="524" y="1009"/>
      <point x="524" y="863" type="curve" smooth="yes"/>
      <point x="524" y="291" type="line" smooth="yes"/>
      <point x="524" y="175"/>
      <point x="488" y="119"/>
      <point x="412" y="119" type="curve" smooth="yes"/>
      <point x="327" y="119"/>
      <point x="300" y="188"/>
      <point x="300" y="280" type="curve" smooth="yes"/>
      <point x="300" y="476" type="line"/>
      <point x="132" y="476" type="line"/>
      <point x="132" y="299" type="line" smooth="yes"/>
    </contour>
  </outline>
</glyph>
<glyph name="six" format="1">
  <advance width="861"/>
  <unicode hex="0036"/>
  <outline>
    <contour>
      <point x="706" y="-21"/>
      <point x="754" y="206"/>
      <point x="754" y="509" type="curve" smooth="yes"/>
      <point x="754" y="548" type="line" smooth="yes"/>
      <point x="754" y="911"/>
      <point x="690" y="1112"/>
      <point x="438" y="1102" type="curve" smooth="yes"/>
      <point x="376" y="1100"/>
      <point x="304" y="1067"/>
      <point x="278" y="1024" type="curve"/>
      <point x="278" y="1221" type="line" smooth="yes"/>
      <point x="278" y="1522"/>
      <point x="307" y="1634"/>
      <point x="430" y="1640" type="curve" smooth="yes"/>
      <point x="559" y="1646"/>
      <point x="586" y="1513"/>
      <point x="586" y="1211" type="curve"/>
      <point x="754" y="1211" type="line"/>
      <point x="754" y="1574"/>
      <point x="696" y="1781"/>
      <point x="438" y="1781" type="curve" smooth="yes"/>
      <point x="180" y="1781"/>
      <point x="110" y="1583"/>
      <point x="110" y="1220" type="curve"/>
      <point x="110" y="509" type="line" smooth="yes"/>
      <point x="110" y="206"/>
      <point x="142" y="-21"/>
      <point x="424" y="-21" type="curve" smooth="yes"/>
    </contour>
    <contour>
      <point x="586" y="215"/>
      <point x="552" y="124"/>
      <point x="424" y="124" type="curve" smooth="yes"/>
      <point x="302" y="124"/>
      <point x="278" y="236"/>
      <point x="278" y="497" type="curve" smooth="yes"/>
      <point x="278" y="872" type="line"/>
      <point x="292" y="897"/>
      <point x="347" y="961"/>
      <point x="438" y="961" type="curve" smooth="yes"/>
      <point x="567" y="961"/>
      <point x="586" y="844"/>
      <point x="586" y="542" type="curve" smooth="yes"/>
      <point x="586" y="474" type="line" smooth="yes"/>
    </contour>
  </outline>
</glyph>
<glyph name="seven" format="1">
  <advance width="876"/>
  <unicode hex="0037"/>
  <outline>
    <contour>
      <point x="438" y="1" type="line"/>
      <point x="495" y="892"/>
      <point x="782" y="1639"/>
      <point x="782" y="1639" type="curve"/>
      <point x="782" y="1761" type="line"/>
      <point x="126" y="1761" type="line"/>
      <point x="126" y="1625" type="line"/>
      <point x="629" y="1625" type="line"/>
      <point x="629" y="1625"/>
      <point x="337" y="955"/>
      <point x="261" y="1" type="curve"/>
    </contour>
  </outline>
</glyph>
<glyph name="eight" format="1">
  <advance width="876"/>
  <unicode hex="0038"/>
  <outline>
    <contour>
      <point x="120" y="121"/>
      <point x="211" y="-21"/>
      <point x="443" y="-21" type="curve" smooth="yes"/>
      <point x="675" y="-21"/>
      <point x="756" y="121"/>
      <point x="756" y="454" type="curve"/>
      <point x="756" y="651"/>
      <point x="699" y="869"/>
      <point x="607" y="936" type="curve"/>
      <point x="713" y="1008"/>
      <point x="752" y="1146"/>
      <point x="752" y="1346" type="curve"/>
      <point x="752" y="1649"/>
      <point x="677" y="1781"/>
      <point x="445" y="1781" type="curve" smooth="yes"/>
      <point x="213" y="1781"/>
      <point x="136" y="1649"/>
      <point x="136" y="1346" type="curve"/>
      <point x="136" y="1149"/>
      <point x="170" y="1006"/>
      <point x="274" y="932" type="curve"/>
      <point x="176" y="866"/>
      <point x="120" y="654"/>
      <point x="120" y="454" type="curve"/>
    </contour>
    <contour>
      <point x="584" y="1056"/>
      <point x="520" y="990"/>
      <point x="443" y="990" type="curve" smooth="yes"/>
      <point x="361" y="990"/>
      <point x="304" y="1055"/>
      <point x="304" y="1343" type="curve"/>
      <point x="304" y="1605"/>
      <point x="355" y="1640"/>
      <point x="443" y="1640" type="curve" smooth="yes"/>
      <point x="533" y="1640"/>
      <point x="584" y="1619"/>
      <point x="584" y="1347" type="curve"/>
    </contour>
    <contour>
      <point x="288" y="744"/>
      <point x="368" y="867"/>
      <point x="445" y="867" type="curve" smooth="yes"/>
      <point x="527" y="867"/>
      <point x="588" y="745"/>
      <point x="588" y="457" type="curve"/>
      <point x="588" y="198"/>
      <point x="573" y="120"/>
      <point x="445" y="120" type="curve" smooth="yes"/>
      <point x="315" y="120"/>
      <point x="288" y="201"/>
      <point x="288" y="453" type="curve"/>
    </contour>
  </outline>
</glyph>
<glyph name="nine" format="1">
  <advance width="876"/>
  <unicode hex="0039"/>
  <outline>
    <contour>
      <point x="446" y="-21" type="curve" smooth="yes"/>
      <point x="704" y="-21"/>
      <point x="766" y="177"/>
      <point x="766" y="540" type="curve"/>
      <point x="766" y="1251" type="line" smooth="yes"/>
      <point x="766" y="1554"/>
      <point x="720" y="1781"/>
      <point x="438" y="1781" type="curve" smooth="yes"/>
      <point x="156" y="1781"/>
      <point x="108" y="1554"/>
      <point x="108" y="1251" type="curve" smooth="yes"/>
      <point x="108" y="1219" type="line" smooth="yes"/>
      <point x="108" y="856"/>
      <point x="179" y="658"/>
      <point x="422" y="658" type="curve" smooth="yes"/>
      <point x="484" y="658"/>
      <point x="563" y="674"/>
      <point x="598" y="706" type="curve"/>
      <point x="598" y="539" type="line" smooth="yes"/>
      <point x="598" y="238"/>
      <point x="583" y="120"/>
      <point x="460" y="120" type="curve" smooth="yes"/>
      <point x="331" y="120"/>
      <point x="303" y="238"/>
      <point x="303" y="540" type="curve"/>
      <point x="135" y="540" type="line"/>
      <point x="135" y="177"/>
      <point x="188" y="-21"/>
    </contour>
    <contour>
      <point x="432" y="799" type="curve" smooth="yes"/>
      <point x="303" y="799"/>
      <point x="276" y="916"/>
      <point x="276" y="1218" type="curve" smooth="yes"/>
      <point x="276" y="1264" type="line" smooth="yes"/>
      <point x="276" y="1509"/>
      <point x="310" y="1636"/>
      <point x="438" y="1636" type="curve" smooth="yes"/>
      <point x="560" y="1636"/>
      <point x="598" y="1510"/>
      <point x="598" y="1263" type="curve" smooth="yes"/>
      <point x="598" y="846" type="line"/>
      <point x="579" y="829"/>
      <point x="506" y="799"/>
    </contour>
  </outline>
</glyph>
<glyph name="semicolon" format="1">
  <advance width="561"/>
  <unicode hex="003B"/>
  <outline>
    <contour>
      <point x="176" y="-113" type="line"/>
      <point x="344" y="-113" type="line"/>
      <point x="446" y="224" type="line"/>
      <point x="446" y="533" type="line"/>
      <point x="115" y="533" type="line"/>
      <point x="115" y="215" type="line"/>
      <point x="242" y="215" type="line"/>
    </contour>
    <contour>
      <point x="115" y="930" type="line"/>
      <point x="446" y="930" type="line"/>
      <point x="446" y="1274" type="line"/>
      <point x="115" y="1274" type="line"/>
    </contour>
  </outline>
</glyph>
<glyph name="less" format="1">
  <advance width="730"/>
  <unicode hex="003C"/>
  <outline>
    <contour>
      <point x="641" y="458" type="line"/>
      <point x="185" y="757" type="line"/>
      <point x="641" y="1041" type="line"/>
      <point x="641" y="1226" type="line"/>
      <point x="63" y="835" type="line"/>
      <point x="63" y="675" type="line"/>
      <point x="641" y="280" type="line"/>
    </contour>
  </outline>
</glyph>
<glyph name="greater" format="1">
  <advance width="730"/>
  <unicode hex="003E"/>
  <outline>
    <contour>
      <point x="85" y="280" type="line"/>
      <point x="663" y="671" type="line"/>
      <point x="663" y="831" type="line"/>
      <point x="85" y="1226" type="line"/>
      <point x="85" y="1048" type="line"/>
      <point x="541" y="749" type="line"/>
      <point x="85" y="465" type="line"/>
    </contour>
  </outline>
</glyph>
<glyph name="question" format="1">
  <advance width="738.287345126"/>
  <unicode hex="003F"/>
  <outline>
    <contour>
      <point x="375.287345126" y="299" type="line"/>
      <point x="232.287345126" y="299" type="line"/>
      <point x="232.287345126" y="1" type="line"/>
      <point x="375.287345126" y="1" type="line"/>
    </contour>
    <contour>
      <point x="320.287345126" y="1160" type="line"/>
      <point x="320.287345126" y="1369" type="line" smooth="yes"/>
      <point x="320.287345126" y="1578"/>
      <point x="321.287345126" y="1638"/>
      <point x="408.287345126" y="1638" type="curve" smooth="yes"/>
      <point x="488.287345126" y="1638"/>
      <point x="486.287345126" y="1571"/>
      <point x="486.287345126" y="1373" type="curve" smooth="yes"/>
      <point x="486.287345126" y="1029"/>
      <point x="486.287345126" y="898"/>
      <point x="232.287345126" y="810" type="curve"/>
      <point x="232.287345126" y="494" type="line"/>
      <point x="375.287345126" y="494" type="line"/>
      <point x="375.287345126" y="739" type="line"/>
      <point x="595.287345126" y="801"/>
      <point x="654.287345126" y="963"/>
      <point x="654.287345126" y="1309" type="curve" smooth="yes"/>
      <point x="654.287345126" y="1592"/>
      <point x="653.287345126" y="1782"/>
      <point x="404.287345126" y="1782" type="curve" smooth="yes"/>
      <point x="133.287345126" y="1782"/>
      <point x="152.287345126" y="1523"/>
      <point x="152.287345126" y="1367" type="curve" smooth="yes"/>
      <point x="152.287345126" y="1160" type="line"/>
    </contour>
  </outline>
</glyph>
<glyph name="A" format="1">
  <advance width="864"/>
  <unicode hex="0041"/>
  <outline>
    <contour>
      <point x="230" y="488" type="line"/>
      <point x="230" y="350" type="line"/>
      <point x="631" y="350" type="line"/>
      <point x="631" y="488" type="line"/>
    </contour>
    <contour>
      <point x="422" y="1447" type="line"/>
      <point x="655" y="0" type="line"/>
      <point x="816" y="0" type="line"/>
      <point x="510" y="1761" type="line"/>
      <point x="326" y="1761" type="line"/>
      <point x="48" y="0" type="line"/>
      <point x="208" y="0" type="line"/>
    </contour>
  </outline>
</glyph>
<glyph name="B" format="1">
  <advance width="898"/>
  <unicode hex="0042"/>
  <outline>
    <contour>
      <point x="488" y="0" type="line" smooth="yes"/>
      <point x="745" y="0"/>
      <point x="808" y="161"/>
      <point x="808" y="522" type="curve"/>
      <point x="808" y="718"/>
      <point x="780" y="895"/>
      <point x="663" y="949" type="curve"/>
      <point x="763" y="1010"/>
      <point x="783" y="1134"/>
      <point x="783" y="1337" type="curve"/>
      <point x="783" y="1640"/>
      <point x="731" y="1761"/>
      <point x="449" y="1761" type="curve" smooth="yes"/>
      <point x="172" y="1761" type="line"/>
      <point x="172" y="0" type="line"/>
    </contour>
    <contour>
      <point x="340" y="1011" type="line"/>
      <point x="340" y="1616" type="line" smooth="yes"/>
      <point x="449" y="1616" type="line" smooth="yes"/>
      <point x="571" y="1616"/>
      <point x="615" y="1584"/>
      <point x="615" y="1337" type="curve"/>
      <point x="615" y="1036"/>
      <point x="592" y="1011"/>
      <point x="469" y="1011" type="curve" smooth="yes"/>
    </contour>
    <contour>
      <point x="340" y="141" type="line"/>
      <point x="340" y="878" type="line" smooth="yes"/>
      <point x="494" y="878" type="line" smooth="yes"/>
      <point x="616" y="878"/>
      <point x="640" y="780"/>
      <point x="640" y="533" type="curve" smooth="yes"/>
      <point x="640" y="524" type="line" smooth="yes"/>
      <point x="640" y="223"/>
      <point x="611" y="141"/>
      <point x="488" y="141" type="curve" smooth="yes"/>
    </contour>
  </outline>
</glyph>
<glyph name="C" format="1">
  <advance width="841"/>
  <unicode hex="0043"/>
  <outline>
    <contour>
      <point x="580" y="1084" type="line"/>
      <point x="748" y="1084" type="line"/>
      <point x="748" y="1251" type="line" smooth="yes"/>
      <point x="748" y="1554"/>
      <point x="721" y="1781"/>
      <point x="439" y="1781" type="curve" smooth="yes"/>
      <point x="157" y="1781"/>
      <point x="110.0" y="1554.0"/>
      <point x="110.0" y="1251.0" type="curve" smooth="yes"/>
      <point x="110.0" y="540.0" type="line" smooth="yes"/>
      <point x="110.0" y="177.0"/>
      <point x="175" y="-21"/>
      <point x="433" y="-21" type="curve" smooth="yes"/>
      <point x="691" y="-21"/>
      <point x="748" y="177"/>
      <point x="748" y="540" type="curve" smooth="yes"/>
      <point x="748" y="698" type="line"/>
      <point x="580" y="698" type="line"/>
      <point x="580" y="539" type="line" smooth="yes"/>
      <point x="580" y="238"/>
      <point x="556" y="120"/>
      <point x="433" y="120" type="curve" smooth="yes"/>
      <point x="304" y="120"/>
      <point x="278.0" y="237.0"/>
      <point x="278.0" y="539.0" type="curve" smooth="yes"/>
      <point x="278.0" y="1264.0" type="line" smooth="yes"/>
      <point x="278.0" y="1509.0"/>
      <point x="311" y="1636"/>
      <point x="439" y="1636" type="curve" smooth="yes"/>
      <point x="561" y="1636"/>
      <point x="580" y="1510"/>
      <point x="580" y="1263" type="curve" smooth="yes"/>
    </contour>
  </outline>
</glyph>
<glyph name="D" format="1">
  <advance width="934"/>
  <unicode hex="0044"/>
  <outline>
    <contour>
      <point x="340.0" y="141.0" type="line"/>
      <point x="340.0" y="1623.0" type="line" smooth="yes"/>
      <point x="463" y="1623" type="line" smooth="yes"/>
      <point x="585" y="1623"/>
      <point x="640" y="1525"/>
      <point x="640" y="1278" type="curve" smooth="yes"/>
      <point x="641" y="505" type="line" smooth="yes"/>
      <point x="641" y="204"/>
      <point x="580" y="141"/>
      <point x="457" y="141" type="curve" smooth="yes"/>
    </contour>
    <contour>
      <point x="172.0" y="0.0" type="line"/>
      <point x="457" y="0" type="line" smooth="yes"/>
      <point x="715" y="0"/>
      <point x="809" y="143"/>
      <point x="809" y="506" type="curve" smooth="yes"/>
      <point x="808" y="1266" type="line" smooth="yes"/>
      <point x="808" y="1569"/>
      <point x="745" y="1760"/>
      <point x="463" y="1760" type="curve" smooth="yes"/>
      <point x="172" y="1760" type="line"/>
    </contour>
  </outline>
</glyph>
<glyph name="E" format="1">
  <advance width="768"/>
  <unicode hex="0045"/>
  <outline>
    <contour>
      <point x="172" y="0" type="line"/>
      <point x="657" y="0" type="line"/>
      <point x="657" y="136" type="line"/>
      <point x="340" y="136" type="line"/>
      <point x="340" y="828" type="line"/>
      <point x="639" y="828" type="line"/>
      <point x="639" y="966" type="line"/>
      <point x="340" y="966" type="line"/>
      <point x="340" y="1625" type="line"/>
      <point x="657" y="1625" type="line"/>
      <point x="657" y="1760" type="line"/>
      <point x="172" y="1760" type="line"/>
    </contour>
  </outline>
</glyph>
<glyph name="F" format="1">
  <advance width="749"/>
  <unicode hex="0046"/>
  <outline>
    <contour>
      <point x="172" y="0" type="line"/>
      <point x="340" y="0" type="line"/>
      <point x="340" y="876" type="line"/>
      <point x="639" y="876" type="line"/>
      <point x="639" y="1014" type="line"/>
      <point x="340" y="1014" type="line"/>
      <point x="340" y="1625" type="line"/>
      <point x="657" y="1625" type="line"/>
      <point x="657" y="1760" type="line"/>
      <point x="172" y="1760" type="line"/>
    </contour>
  </outline>
</glyph>
<glyph name="G" format="1">
  <advance width="892.888888889"/>
  <unicode hex="0047"/>
  <outline>
    <contour>
      <point x="441" y="901" type="line"/>
      <point x="441" y="763" type="line"/>
      <point x="751" y="763" type="line"/>
      <point x="751" y="901" type="line"/>
    </contour>
    <contour>
      <point x="583" y="1107" type="line"/>
      <point x="751" y="1107" type="line"/>
      <point x="751" y="1251" type="line" smooth="yes"/>
      <point x="751" y="1554"/>
      <point x="727" y="1781"/>
      <point x="445" y="1781" type="curve" smooth="yes"/>
      <point x="163" y="1781"/>
      <point x="113" y="1554"/>
      <point x="113" y="1251" type="curve" smooth="yes"/>
      <point x="113" y="529" type="line" smooth="yes"/>
      <point x="113" y="139"/>
      <point x="208" y="-16"/>
      <point x="407" y="-16" type="curve" smooth="yes"/>
      <point x="673" y="-16"/>
      <point x="681" y="235"/>
      <point x="751" y="697" type="curve" smooth="yes"/>
      <point x="753" y="711"/>
      <point x="751" y="723"/>
      <point x="751" y="730" type="curve" smooth="yes"/>
      <point x="751" y="818" type="line"/>
      <point x="589" y="818" type="line"/>
      <point x="589" y="539" type="line" smooth="yes"/>
      <point x="589" y="238"/>
      <point x="559" y="120"/>
      <point x="436" y="120" type="curve" smooth="yes"/>
      <point x="307" y="120"/>
      <point x="281" y="237"/>
      <point x="281" y="539" type="curve" smooth="yes"/>
      <point x="281" y="1264" type="line" smooth="yes"/>
      <point x="281" y="1509"/>
      <point x="314" y="1636"/>
      <point x="442" y="1636" type="curve" smooth="yes"/>
      <point x="564" y="1636"/>
      <point x="583" y="1510"/>
      <point x="583" y="1263" type="curve" smooth="yes"/>
    </contour>
    <contour>
      <point x="751" y="750" type="line"/>
      <point x="619" y="170" type="line"/>
      <point x="649" y="0" type="line"/>
      <point x="751" y="0" type="line"/>
    </contour>
  </outline>
</glyph>
<glyph name="H" format="1">
  <advance width="889"/>
  <unicode hex="0048"/>
  <outline>
    <contour>
      <point x="72" y="0" type="line"/>
      <point x="240" y="0" type="line"/>
      <point x="240" y="807" type="line"/>
      <point x="549" y="807" type="line"/>
      <point x="549" y="0" type="line"/>
      <point x="717" y="0" type="line"/>
      <point x="717" y="1760" type="line"/>
      <point x="549" y="1760" type="line"/>
      <point x="549" y="938" type="line"/>
      <point x="240" y="938" type="line"/>
      <point x="240" y="1760" type="line"/>
      <point x="72" y="1760" type="line"/>
    </contour>
    <contour>
      <point x="445" y="0" type="move" name="top"/>
    </contour>
    <contour>
      <point x="445" y="0" type="move" name="center"/>
    </contour>
  </outline>
</glyph>
<glyph name="I" format="1">
  <advance width="432.0"/>
  <unicode hex="0049"/>
  <outline>
    <contour>
      <point x="300.0" y="1761.0" type="curve"/>
      <point x="132.0" y="1761.0" type="line"/>
      <point x="132.0" y="0.0" type="line"/>
      <point x="300.0" y="0.0" type="line"/>
      <point x="300.0" y="0.0"/>
      <point x="300.0" y="1761.0"/>
    </contour>
  </outline>
</glyph>
<glyph name="J" format="1">
  <advance width="838"/>
  <unicode hex="004A"/>
  <outline>
    <contour>
      <point x="502" y="1760" type="line"/>
      <point x="502" y="418" type="line" smooth="yes"/>
      <point x="502" y="243"/>
      <point x="505" y="120"/>
      <point x="380" y="120" type="curve" smooth="yes"/>
      <point x="257" y="120"/>
      <point x="258" y="250"/>
      <point x="258" y="402" type="curve" smooth="yes"/>
      <point x="258" y="566" type="line"/>
      <point x="90" y="566" type="line"/>
      <point x="90" y="389" type="line" smooth="yes"/>
      <point x="90" y="113"/>
      <point x="167" y="-21"/>
      <point x="386" y="-21" type="curve" smooth="yes"/>
      <point x="586" y="-21"/>
      <point x="670" y="122"/>
      <point x="670" y="422" type="curve" smooth="yes"/>
      <point x="670" y="1760" type="line"/>
    </contour>
  </outline>
</glyph>
<glyph name="K" format="1">
  <advance width="902"/>
  <unicode hex="004B"/>
  <outline>
    <contour>
      <point x="172" y="0" type="line"/>
      <point x="342" y="0" type="line"/>
      <point x="342" y="854" type="line"/>
      <point x="695" y="0" type="line"/>
      <point x="870" y="0" type="line"/>
      <point x="496" y="891" type="line"/>
      <point x="847" y="1760" type="line"/>
      <point x="681" y="1760" type="line"/>
      <point x="340" y="902" type="line"/>
      <point x="340" y="1760" type="line"/>
      <point x="172" y="1760" type="line"/>
    </contour>
    <contour>
      <point x="451" y="0" type="move" name="top"/>
    </contour>
    <contour>
      <point x="451" y="0" type="move" name="bottom"/>
    </contour>
  </outline>
</glyph>
<glyph name="L" format="1">
  <advance width="739"/>
  <unicode hex="004C"/>
  <outline>
    <contour>
      <point x="172" y="0" type="line"/>
      <point x="657" y="0" type="line"/>
      <point x="657" y="136" type="line"/>
      <point x="340" y="136" type="line"/>
      <point x="340" y="1760" type="line"/>
      <point x="172" y="1760" type="line"/>
    </contour>
    <contour>
      <point x="370" y="0" type="move" name="top"/>
    </contour>
    <contour>
      <point x="370" y="0" type="move" name="bottom"/>
    </contour>
  </outline>
</glyph>
<glyph name="M" format="1">
  <advance width="1180"/>
  <unicode hex="004D"/>
  <outline>
    <contour>
      <point x="281" y="738" type="line"/>
      <point x="260" y="1430" type="line"/>
      <point x="510" y="0" type="line"/>
      <point x="680" y="0" type="line"/>
      <point x="920" y="1430" type="line"/>
      <point x="899" y="738" type="line"/>
      <point x="899" y="0" type="line"/>
      <point x="1048" y="0" type="line"/>
      <point x="1048" y="1761" type="line"/>
      <point x="837" y="1761" type="line"/>
      <point x="595" y="212" type="line"/>
      <point x="343" y="1761" type="line"/>
      <point x="132" y="1761" type="line"/>
      <point x="132" y="0" type="line"/>
      <point x="281" y="0" type="line"/>
    </contour>
  </outline>
</glyph>
<glyph name="N" format="1">
  <advance width="940"/>
  <unicode hex="004E"/>
  <outline>
    <contour>
      <point x="288" y="848" type="line"/>
      <point x="277" y="1280" type="line"/>
      <point x="680" y="0" type="line"/>
      <point x="808" y="0" type="line"/>
      <point x="808" y="1761" type="line"/>
      <point x="662" y="1761" type="line"/>
      <point x="662" y="1000" type="line"/>
      <point x="684" y="473" type="line"/>
      <point x="253" y="1761" type="line"/>
      <point x="132" y="1761" type="line"/>
      <point x="132" y="0" type="line"/>
      <point x="288" y="0" type="line"/>
    </contour>
  </outline>
</glyph>
<glyph name="O" format="1">
  <advance width="1240"/>
  <unicode hex="004F"/>
  <outline>
    <contour>
      <point x="466" y="1264" type="line" smooth="yes"/>
      <point x="466" y="1509"/>
      <point x="500" y="1636"/>
      <point x="628" y="1636" type="curve" smooth="yes"/>
      <point x="750" y="1636"/>
      <point x="774" y="1510"/>
      <point x="774" y="1263" type="curve" smooth="yes"/>
      <point x="774" y="539" type="line" smooth="yes"/>
      <point x="774" y="238"/>
      <point x="745" y="120"/>
      <point x="622" y="120" type="curve" smooth="yes"/>
      <point x="493" y="120"/>
      <point x="466" y="237"/>
      <point x="466" y="539" type="curve" smooth="yes"/>
    </contour>
    <contour>
      <point x="622" y="-21" type="curve" smooth="yes"/>
      <point x="880" y="-21"/>
      <point x="942" y="177"/>
      <point x="942" y="540" type="curve" smooth="yes"/>
      <point x="942" y="1251" type="line" smooth="yes"/>
      <point x="942" y="1554"/>
      <point x="910" y="1781"/>
      <point x="628" y="1781" type="curve" smooth="yes"/>
      <point x="346" y="1781"/>
      <point x="298" y="1554"/>
      <point x="298" y="1251" type="curve" smooth="yes"/>
      <point x="298" y="540" type="line" smooth="yes"/>
      <point x="298" y="177"/>
      <point x="364" y="-21"/>
    </contour>
  </outline>
</glyph>
<glyph name="P" format="1">
  <advance width="893"/>
  <unicode hex="0050"/>
  <outline>
    <contour>
      <point x="172" y="0" type="line"/>
      <point x="340" y="0" type="line"/>
      <point x="340" y="690" type="line"/>
      <point x="488" y="690" type="line" smooth="yes"/>
      <point x="746" y="690"/>
      <point x="808" y="867"/>
      <point x="808" y="1230" type="curve" smooth="yes"/>
      <point x="808" y="1251" type="line" smooth="yes"/>
      <point x="808" y="1554"/>
      <point x="776" y="1760"/>
      <point x="494" y="1760" type="curve" smooth="yes"/>
      <point x="172" y="1760" type="line"/>
    </contour>
    <contour>
      <point x="340" y="831" type="line"/>
      <point x="340" y="1623" type="line" smooth="yes"/>
      <point x="494" y="1623" type="line" smooth="yes"/>
      <point x="616" y="1623"/>
      <point x="640" y="1510"/>
      <point x="640" y="1263" type="curve" smooth="yes"/>
      <point x="640" y="1229" type="line" smooth="yes"/>
      <point x="640" y="928"/>
      <point x="611" y="831"/>
      <point x="488" y="831" type="curve" smooth="yes"/>
    </contour>
  </outline>
</glyph>
<glyph name="R" format="1">
  <advance width="972.0"/>
  <unicode hex="0052"/>
  <outline>
    <contour>
      <point x="172" y="0" type="line"/>
      <point x="340" y="0" type="line"/>
      <point x="340" y="862" type="line"/>
      <point x="487" y="853" type="line" smooth="yes"/>
      <point x="639" y="853"/>
      <point x="640" y="796"/>
      <point x="640" y="569" type="curve"/>
      <point x="640" y="137"/>
      <point x="641" y="37"/>
      <point x="660" y="0" type="curve"/>
      <point x="828" y="0" type="line"/>
      <point x="808" y="53"/>
      <point x="808" y="137"/>
      <point x="808" y="210" type="curve"/>
      <point x="808" y="768"/>
      <point x="780" y="904"/>
      <point x="646" y="926" type="curve"/>
      <point x="770" y="961"/>
      <point x="808" y="1098"/>
      <point x="808" y="1321" type="curve"/>
      <point x="808" y="1624"/>
      <point x="776" y="1760"/>
      <point x="494" y="1760" type="curve" smooth="yes"/>
      <point x="172" y="1760" type="line"/>
    </contour>
    <contour>
      <point x="340" y="979" type="line"/>
      <point x="340" y="1623" type="line" smooth="yes"/>
      <point x="494" y="1623" type="line" smooth="yes"/>
      <point x="616" y="1623"/>
      <point x="640" y="1580"/>
      <point x="640" y="1333" type="curve" smooth="yes"/>
      <point x="640" y="1320" type="line" smooth="yes"/>
      <point x="640" y="1019"/>
      <point x="611" y="979"/>
      <point x="488" y="979" type="curve" smooth="yes"/>
    </contour>
  </outline>
</glyph>
<glyph name="S" format="1">
  <advance width="897"/>
  <unicode hex="0053"/>
  <outline>
    <contour>
      <point x="152.0" y="871.0"/>
      <point x="626.0" y="814.0"/>
      <point x="626.0" y="489.0" type="curve" smooth="yes"/>
      <point x="626.0" y="488.0"/>
      <point x="626.0" y="488.0"/>
      <point x="626.0" y="488.0" type="curve" smooth="yes"/>
      <point x="626.0" y="186.0"/>
      <point x="617.0" y="124.0"/>
      <point x="480.0" y="124.0" type="curve" smooth="yes"/>
      <point x="348.0" y="124.0"/>
      <point x="324" y="214"/>
      <point x="324" y="498" type="curve" smooth="yes"/>
      <point x="324" y="500"/>
      <point x="324" y="503"/>
      <point x="324" y="506" type="curve" smooth="yes"/>
      <point x="324.0" y="697.0" type="line"/>
      <point x="156.0" y="697.0" type="line"/>
      <point x="156" y="518" type="line" smooth="yes"/>
      <point x="156" y="215"/>
      <point x="191.0" y="-20.0"/>
      <point x="473.0" y="-20.0" type="curve" smooth="yes"/>
      <point x="740.0" y="-20.0"/>
      <point x="795.0" y="164.0"/>
      <point x="795.0" y="440.0" type="curve" smooth="yes"/>
      <point x="795.0" y="456.0"/>
      <point x="795.0" y="472.0"/>
      <point x="794.0" y="488.0" type="curve" smooth="yes"/>
      <point x="785.0" y="922.0"/>
      <point x="329" y="969"/>
      <point x="312" y="1272" type="curve" smooth="yes"/>
      <point x="310" y="1303"/>
      <point x="309.0" y="1346.0"/>
      <point x="309.0" y="1372.0" type="curve" smooth="yes"/>
      <point x="309.0" y="1556.0"/>
      <point x="353.0" y="1638.0"/>
      <point x="465.0" y="1638.0" type="curve" smooth="yes"/>
      <point x="587.0" y="1638.0"/>
      <point x="599.0" y="1510.0"/>
      <point x="599.0" y="1263.0" type="curve" smooth="yes"/>
      <point x="599.0" y="1263.0"/>
      <point x="599.0" y="1263.0"/>
      <point x="599.0" y="1263.0" type="curve" smooth="yes"/>
      <point x="599.0" y="1097.0" type="line"/>
      <point x="767.0" y="1097.0" type="line"/>
      <point x="767.0" y="1251.0" type="line" smooth="yes"/>
      <point x="767.0" y="1554.0"/>
      <point x="752" y="1782"/>
      <point x="464" y="1782" type="curve" smooth="yes"/>
      <point x="196" y="1782"/>
      <point x="144.0" y="1607.0"/>
      <point x="144.0" y="1330.0" type="curve" smooth="yes"/>
      <point x="144.0" y="1315.0"/>
      <point x="144.0" y="1300.0"/>
      <point x="144.0" y="1285.0" type="curve" smooth="yes"/>
    </contour>
  </outline>
</glyph>
<glyph name="T" format="1">
  <advance width="589"/>
  <unicode hex="0054"/>
  <outline>
    <contour>
      <point x="219" y="0" type="line"/>
      <point x="387" y="0" type="line"/>
      <point x="387" y="1625" type="line"/>
      <point x="557" y="1625" type="line"/>
      <point x="557" y="1760" type="line"/>
      <point x="32" y="1760" type="line"/>
      <point x="32" y="1625" type="line"/>
      <point x="219" y="1625" type="line"/>
    </contour>
  </outline>
</glyph>
<glyph name="U" format="1">
  <advance width="890.0"/>
  <unicode hex="0055"/>
  <outline>
    <contour>
      <point x="447.0" y="-21.0" type="curve" smooth="yes"/>
      <point x="700.0" y="-21.0"/>
      <point x="767.0" y="132.0"/>
      <point x="767.0" y="452.0" type="curve" smooth="yes"/>
      <point x="767.0" y="1761.0" type="line"/>
      <point x="599.0" y="1761.0" type="line"/>
      <point x="599.0" y="456" type="line" smooth="yes"/>
      <point x="599.0" y="240"/>
      <point x="598.0" y="119"/>
      <point x="447.0" y="119" type="curve" smooth="yes"/>
      <point x="297.0" y="119"/>
      <point x="291.0" y="241.0"/>
      <point x="291.0" y="457.0" type="curve" smooth="yes"/>
      <point x="291.0" y="1761.0" type="line"/>
      <point x="123.0" y="1761.0" type="line"/>
      <point x="123.0" y="452.0" type="line" smooth="yes"/>
      <point x="123.0" y="132.0"/>
      <point x="194.0" y="-21.0"/>
    </contour>
  </outline>
</glyph>
<glyph name="V" format="1">
  <advance width="819"/>
  <unicode hex="0056"/>
  <outline>
    <contour>
      <point x="523" y="938" type="curve"/>
      <point x="355" y="938" type="line"/>
      <point x="355" y="0" type="line"/>
      <point x="523" y="0" type="line"/>
      <point x="523" y="0"/>
      <point x="523" y="938"/>
    </contour>
    <contour>
      <point x="439" y="1018" type="line"/>
      <point x="202" y="1761" type="line"/>
      <point x="41" y="1761" type="line"/>
      <point x="357" y="795" type="line"/>
      <point x="521" y="795" type="line"/>
      <point x="809" y="1761" type="line"/>
      <point x="649" y="1761" type="line"/>
    </contour>
  </outline>
</glyph>
<glyph name="W" format="1">
  <advance width="1385"/>
  <unicode hex="0057"/>
  <outline>
    <contour>
      <point x="1004" y="352" type="line"/>
      <point x="774" y="1761" type="line"/>
      <point x="655" y="1761" type="line"/>
      <point x="920" y="0" type="line"/>
      <point x="1086" y="0" type="line"/>
      <point x="1297" y="1761" type="line"/>
      <point x="1140" y="1761" type="line"/>
    </contour>
    <contour>
      <point x="412" y="352" type="line"/>
      <point x="249" y="1761" type="line"/>
      <point x="88" y="1761" type="line"/>
      <point x="331" y="0" type="line"/>
      <point x="489" y="0" type="line"/>
      <point x="774" y="1761" type="line"/>
      <point x="635" y="1761" type="line"/>
    </contour>
  </outline>
</glyph>
<glyph name="X" format="1">
  <advance width="710"/>
  <unicode hex="0058"/>
  <outline>
    <contour>
      <point x="525" y="0" type="line"/>
      <point x="674" y="0" type="line"/>
      <point x="200" y="1761" type="line"/>
      <point x="48" y="1761" type="line"/>
    </contour>
    <contour>
      <point x="181" y="0" type="line"/>
      <point x="673" y="1761" type="line"/>
      <point x="528" y="1761" type="line"/>
      <point x="36" y="0" type="line"/>
    </contour>
  </outline>
</glyph>
<glyph name="Y" format="1">
  <advance width="779.0"/>
  <unicode hex="0059"/>
  <outline>
    <contour>
      <point x="404.0" y="332.0" type="line"/>
      <point x="167.0" y="1761.0" type="line"/>
      <point x="6.0" y="1761.0" type="line"/>
      <point x="312.0" y="0.0" type="line"/>
      <point x="496.0" y="0.0" type="line"/>
      <point x="774.0" y="1761.0" type="line"/>
      <point x="614.0" y="1761.0" type="line"/>
    </contour>
  </outline>
</glyph>
<glyph name="Z" format="1">
  <advance width="670"/>
  <unicode hex="005A"/>
  <outline>
    <contour>
      <point x="598" y="136" type="line"/>
      <point x="243" y="136" type="line"/>
      <point x="606" y="1639" type="line"/>
      <point x="606" y="1761" type="line"/>
      <point x="105" y="1761" type="line"/>
      <point x="105" y="1625" type="line"/>
      <point x="433" y="1625" type="line"/>
      <point x="72" y="143" type="line"/>
      <point x="72" y="0" type="line"/>
      <point x="598" y="0" type="line"/>
    </contour>
  </outline>
</glyph>
<glyph name="bracketleft" format="1">
  <advance width="764"/>
  <unicode hex="005B"/>
  <outline>
    <contour>
      <point x="241" y="0" type="line"/>
      <point x="621" y="0" type="line"/>
      <point x="621" y="130" type="line"/>
      <point x="409" y="130" type="line"/>
      <point x="409" y="1631" type="line"/>
      <point x="621" y="1631" type="line"/>
      <point x="621" y="1761" type="line"/>
      <point x="241" y="1761" type="line"/>
    </contour>
  </outline>
</glyph>
<glyph name="bracketright" format="1">
  <advance width="764"/>
  <unicode hex="005D"/>
  <outline>
    <contour>
      <point x="186" y="0" type="line"/>
      <point x="566" y="0" type="line"/>
      <point x="566" y="1761" type="line"/>
      <point x="186" y="1761" type="line"/>
      <point x="186" y="1631" type="line"/>
      <point x="398" y="1631" type="line"/>
      <point x="398" y="130" type="line"/>
      <point x="186" y="130" type="line"/>
    </contour>
  </outline>
</glyph>
<glyph name="asciicircum" format="1">
  <advance width="1030"/>
  <unicode hex="005E"/>
  <outline>
    <contour>
      <point x="626" y="1500" type="line"/>
      <point x="402" y="1500" type="line"/>
      <point x="161" y="577" type="line"/>
      <point x="329" y="577" type="line"/>
      <point x="515" y="1372" type="line"/>
      <point x="701" y="577" type="line"/>
      <point x="867" y="577" type="line"/>
    </contour>
  </outline>
</glyph>
<glyph name="grave" format="1">
  <advance width="650"/>
  <unicode hex="0060"/>
  <outline>
    <contour>
      <point x="436" y="1573" type="line"/>
      <point x="436" y="1656" type="line"/>
      <point x="51" y="1874" type="line"/>
      <point x="51" y="1667" type="line"/>
    </contour>
    <contour>
      <point x="243.5" y="0" type="move" name="_top"/>
    </contour>
  </outline>
</glyph>
<glyph name="a" format="1">
  <advance width="813"/>
  <unicode hex="0061"/>
  <outline>
    <contour>
      <point x="96" y="556" type="curve" smooth="yes"/>
      <point x="96" y="380" type="line" smooth="yes"/>
      <point x="96" y="130"/>
      <point x="144" y="-12"/>
      <point x="332" y="-12" type="curve" smooth="yes"/>
      <point x="453" y="-12"/>
      <point x="526" y="73"/>
      <point x="540" y="118" type="curve"/>
      <point x="540" y="0" type="line"/>
      <point x="708" y="0" type="line"/>
      <point x="708" y="479" type="line"/>
      <point x="708" y="991" type="line" smooth="yes"/>
      <point x="708" y="1332"/>
      <point x="695" y="1518"/>
      <point x="416" y="1518" type="curve" smooth="yes"/>
      <point x="135" y="1518"/>
      <point x="114" y="1302"/>
      <point x="114" y="1056" type="curve" smooth="yes"/>
      <point x="114" y="1015" type="line"/>
      <point x="114" y="1015"/>
      <point x="282" y="1015"/>
      <point x="282" y="1015" type="curve"/>
      <point x="282" y="1057" type="line" smooth="yes"/>
      <point x="282" y="1284"/>
      <point x="296" y="1368"/>
      <point x="415" y="1368" type="curve" smooth="yes"/>
      <point x="536" y="1368"/>
      <point x="540" y="1281"/>
      <point x="540" y="1064" type="curve" smooth="yes"/>
      <point x="540" y="226" type="line"/>
      <point x="520" y="186"/>
      <point x="460" y="132"/>
      <point x="387" y="128" type="curve" smooth="yes"/>
      <point x="288" y="123"/>
      <point x="264" y="194"/>
      <point x="264" y="390" type="curve" smooth="yes"/>
      <point x="264" y="516" type="line" smooth="yes"/>
      <point x="264" y="707"/>
      <point x="308" y="730"/>
      <point x="562" y="844" type="curve"/>
      <point x="562" y="967" type="line"/>
      <point x="300" y="855"/>
      <point x="96" y="793"/>
    </contour>
  </outline>
</glyph>
<glyph name="b" format="1">
  <advance width="921"/>
  <unicode hex="0062"/>
  <outline>
    <contour>
      <point x="536" y="-12" type="curve" smooth="yes"/>
      <point x="745" y="-12"/>
      <point x="779" y="200"/>
      <point x="779" y="481" type="curve" smooth="yes"/>
      <point x="779" y="1021" type="line" smooth="yes"/>
      <point x="779" y="1303"/>
      <point x="737" y="1527"/>
      <point x="508" y="1518" type="curve" smooth="yes"/>
      <point x="435" y="1515"/>
      <point x="351" y="1457"/>
      <point x="334" y="1375" type="curve"/>
      <point x="334" y="1782" type="line"/>
      <point x="166" y="1782" type="line"/>
      <point x="166" y="0" type="line"/>
      <point x="334" y="0" type="line"/>
      <point x="334" y="118" type="line"/>
      <point x="375" y="21"/>
      <point x="457" y="-12"/>
    </contour>
    <contour>
      <point x="484" y="128" type="curve"/>
      <point x="363" y="128"/>
      <point x="334" y="232"/>
      <point x="334" y="459" type="curve" smooth="yes"/>
      <point x="334" y="1061" type="line" smooth="yes"/>
      <point x="334" y="1336"/>
      <point x="398" y="1373"/>
      <point x="484" y="1373" type="curve" smooth="yes"/>
      <point x="598" y="1373"/>
      <point x="611" y="1245"/>
      <point x="611" y="1058" type="curve" smooth="yes"/>
      <point x="611" y="465" type="line" smooth="yes"/>
      <point x="611" y="234"/>
      <point x="583" y="129"/>
    </contour>
  </outline>
</glyph>
<glyph name="c" format="1">
  <advance width="841"/>
  <unicode hex="0063"/>
  <outline>
    <contour>
      <point x="437" y="-18" type="curve" smooth="yes"/>
      <point x="718" y="-18"/>
      <point x="730" y="198"/>
      <point x="730" y="504" type="curve" smooth="yes"/>
      <point x="730" y="567" type="line"/>
      <point x="730" y="567"/>
      <point x="562" y="567"/>
      <point x="562" y="567" type="curve"/>
      <point x="562" y="443" type="line" smooth="yes"/>
      <point x="562" y="246"/>
      <point x="556" y="132"/>
      <point x="437" y="132" type="curve" smooth="yes"/>
      <point x="311" y="132"/>
      <point x="300" y="231"/>
      <point x="300" y="448" type="curve" smooth="yes"/>
      <point x="300" y="1062" type="line" smooth="yes"/>
      <point x="300" y="1249"/>
      <point x="316" y="1368"/>
      <point x="443" y="1368" type="curve" smooth="yes"/>
      <point x="562" y="1368"/>
      <point x="562" y="1266"/>
      <point x="562" y="1070" type="curve" smooth="yes"/>
      <point x="562" y="964" type="line"/>
      <point x="730" y="964" type="line"/>
      <point x="730" y="1030" type="line" smooth="yes"/>
      <point x="730" y="1320"/>
      <point x="714" y="1518"/>
      <point x="443" y="1518" type="curve" smooth="yes"/>
      <point x="173" y="1518"/>
      <point x="132" y="1303"/>
      <point x="132" y="1021" type="curve" smooth="yes"/>
      <point x="132" y="509" type="line" smooth="yes"/>
      <point x="132" y="198"/>
      <point x="158" y="-18"/>
    </contour>
  </outline>
</glyph>
<glyph name="d" format="1">
  <advance width="825"/>
  <unicode hex="0064"/>
  <outline>
    <contour>
      <point x="518" y="186"/>
      <point x="466" y="128"/>
      <point x="394" y="128" type="curve" smooth="yes"/>
      <point x="392" y="128" type="line" smooth="yes"/>
      <point x="293" y="129"/>
      <point x="265" y="234"/>
      <point x="265" y="465" type="curve" smooth="yes"/>
      <point x="265" y="1058" type="line" smooth="yes"/>
      <point x="265" y="1245"/>
      <point x="279" y="1368"/>
      <point x="406" y="1368" type="curve" smooth="yes"/>
      <point x="456" y="1368"/>
      <point x="508" y="1326"/>
      <point x="542" y="1276" type="curve"/>
      <point x="542" y="224" type="line"/>
    </contour>
    <contour>
      <point x="419" y="-12"/>
      <point x="501" y="21"/>
      <point x="542" y="118" type="curve"/>
      <point x="542" y="0" type="line"/>
      <point x="710" y="0" type="line"/>
      <point x="710" y="1768" type="line"/>
      <point x="542" y="1768" type="line"/>
      <point x="542" y="1395" type="line"/>
      <point x="514" y="1461"/>
      <point x="450" y="1518"/>
      <point x="377" y="1518" type="curve" smooth="yes"/>
      <point x="147" y="1518"/>
      <point x="97" y="1303"/>
      <point x="97" y="1021" type="curve" smooth="yes"/>
      <point x="97" y="481" type="line" smooth="yes"/>
      <point x="97" y="200"/>
      <point x="131" y="-12"/>
      <point x="340" y="-12" type="curve" smooth="yes"/>
    </contour>
  </outline>
</glyph>
<glyph name="e" format="1">
  <advance width="854"/>
  <unicode hex="0065"/>
  <outline>
    <contour>
      <point x="437" y="-18" type="curve" smooth="yes"/>
      <point x="718" y="-18"/>
      <point x="726" y="198"/>
      <point x="726" y="504" type="curve" smooth="yes"/>
      <point x="726" y="558" type="line"/>
      <point x="562" y="558" type="line"/>
      <point x="562" y="443" type="line" smooth="yes"/>
      <point x="562" y="246"/>
      <point x="556" y="126"/>
      <point x="437" y="126" type="curve" smooth="yes"/>
      <point x="311" y="126"/>
      <point x="300" y="231"/>
      <point x="300" y="448" type="curve" smooth="yes"/>
      <point x="300" y="749" type="line"/>
      <point x="730" y="749" type="line"/>
      <point x="730" y="1010" type="line" smooth="yes"/>
      <point x="730" y="1300"/>
      <point x="714" y="1518"/>
      <point x="443" y="1518" type="curve" smooth="yes"/>
      <point x="173" y="1518"/>
      <point x="132" y="1303"/>
      <point x="132" y="1021" type="curve" smooth="yes"/>
      <point x="132" y="509" type="line" smooth="yes"/>
      <point x="132" y="198"/>
      <point x="158" y="-18"/>
    </contour>
    <contour>
      <point x="300" y="879" type="line"/>
      <point x="300" y="1062" type="line" smooth="yes"/>
      <point x="300" y="1249"/>
      <point x="316" y="1374"/>
      <point x="443" y="1374" type="curve" smooth="yes"/>
      <point x="562" y="1374"/>
      <point x="562" y="1266"/>
      <point x="562" y="1070" type="curve" smooth="yes"/>
      <point x="562" y="879" type="line"/>
    </contour>
  </outline>
</glyph>
<glyph name="f" format="1">
  <advance width="618"/>
  <unicode hex="0066"/>
  <outline>
    <contour>
      <point x="390" y="1530" type="line" smooth="yes"/>
      <point x="390" y="1600"/>
      <point x="400" y="1647"/>
      <point x="504" y="1647" type="curve" smooth="yes"/>
      <point x="525" y="1647"/>
      <point x="551" y="1645"/>
      <point x="582" y="1641" type="curve"/>
      <point x="582" y="1769" type="line"/>
      <point x="582" y="1769"/>
      <point x="519" y="1788"/>
      <point x="442" y="1788" type="curve" smooth="yes"/>
      <point x="281" y="1788"/>
      <point x="222" y="1688"/>
      <point x="222" y="1513" type="curve" smooth="yes"/>
      <point x="222" y="1442" type="line"/>
      <point x="86" y="1442" type="line"/>
      <point x="86" y="1308" type="line"/>
      <point x="222" y="1308" type="line"/>
      <point x="222" y="0" type="line"/>
      <point x="390" y="0" type="line"/>
      <point x="390" y="1308" type="line"/>
      <point x="582" y="1308" type="line"/>
      <point x="582" y="1442" type="line"/>
      <point x="390" y="1442" type="line"/>
    </contour>
  </outline>
</glyph>
<glyph name="g" format="1">
  <advance width="907"/>
  <unicode hex="0067"/>
  <outline>
    <contour>
      <point x="447" y="-231" type="curve" smooth="yes"/>
      <point x="705" y="-220"/>
      <point x="755" y="-18"/>
      <point x="755" y="111" type="curve" smooth="yes"/>
      <point x="755" y="1500" type="line"/>
      <point x="587" y="1500" type="line"/>
      <point x="587" y="1405" type="line"/>
      <point x="559" y="1485"/>
      <point x="495" y="1517"/>
      <point x="422" y="1518" type="curve" smooth="yes"/>
      <point x="216" y="1522"/>
      <point x="142" y="1303"/>
      <point x="142" y="1021" type="curve" smooth="yes"/>
      <point x="142" y="624" type="line" smooth="yes"/>
      <point x="142" y="343"/>
      <point x="190" y="131"/>
      <point x="399" y="131" type="curve" smooth="yes"/>
      <point x="478" y="131"/>
      <point x="546" y="154"/>
      <point x="587" y="251" type="curve"/>
      <point x="587" y="94" type="line" smooth="yes"/>
      <point x="587" y="-20"/>
      <point x="533" y="-89"/>
      <point x="446" y="-92" type="curve" smooth="yes"/>
      <point x="336" y="-96"/>
      <point x="260" y="-56"/>
      <point x="208" y="-19" type="curve"/>
      <point x="143" y="-143" type="line"/>
      <point x="213" y="-198"/>
      <point x="328" y="-236"/>
    </contour>
    <contour>
      <point x="462" y="271" type="curve"/>
      <point x="340" y="271"/>
      <point x="310" y="377"/>
      <point x="310" y="608" type="curve" smooth="yes"/>
      <point x="310" y="1058" type="line" smooth="yes"/>
      <point x="310" y="1245"/>
      <point x="324" y="1374"/>
      <point x="451" y="1374" type="curve" smooth="yes"/>
      <point x="567" y="1374"/>
      <point x="587" y="1270"/>
      <point x="587" y="1056" type="curve" smooth="yes"/>
      <point x="587" y="611" type="line" smooth="yes"/>
      <point x="587" y="329"/>
      <point x="548" y="271"/>
    </contour>
  </outline>
</glyph>
<glyph name="h" format="1">
  <advance width="961.0"/>
  <unicode hex="0068"/>
  <outline>
    <contour>
      <point x="166.0" y="0.0" type="line"/>
      <point x="334.0" y="0.0" type="line"/>
      <point x="334" y="1179" type="line" smooth="yes"/>
      <point x="334" y="1322"/>
      <point x="419" y="1368"/>
      <point x="502" y="1368" type="curve" smooth="yes"/>
      <point x="580" y="1368"/>
      <point x="635" y="1331"/>
      <point x="635" y="1194" type="curve" smooth="yes"/>
      <point x="635.0" y="0.0" type="line"/>
      <point x="803.0" y="0.0" type="line"/>
      <point x="803.0" y="1206.0" type="line" smooth="yes"/>
      <point x="803.0" y="1420.66202132"/>
      <point x="711.625752552" y="1519.0"/>
      <point x="576.0" y="1519.0" type="curve" smooth="yes"/>
      <point x="458.0" y="1519.0"/>
      <point x="360.0" y="1437.0"/>
      <point x="334.0" y="1349.0" type="curve"/>
      <point x="334" y="1782" type="line"/>
      <point x="166" y="1782" type="line"/>
    </contour>
  </outline>
</glyph>
<glyph name="i" format="1">
  <advance width="403"/>
  <unicode hex="0069"/>
  <outline>
    <contour>
      <point x="290" y="1800" type="line"/>
      <point x="122" y="1800" type="line"/>
      <point x="122" y="1614" type="line"/>
      <point x="290" y="1614" type="line"/>
    </contour>
    <contour>
      <point x="290" y="1500" type="line"/>
      <point x="122" y="1500" type="line"/>
      <point x="122" y="0" type="line"/>
      <point x="290" y="0" type="line"/>
    </contour>
  </outline>
</glyph>
<glyph name="j" format="1">
  <advance width="532"/>
  <unicode hex="006A"/>
  <outline>
    <contour>
      <point x="228" y="-155" type="curve" smooth="yes"/>
      <point x="276" y="-150"/>
      <point x="366" y="-115"/>
      <point x="366" y="46" type="curve" smooth="yes"/>
      <point x="366" y="1500" type="line"/>
      <point x="198" y="1500" type="line"/>
      <point x="198" y="36" type="line" smooth="yes"/>
      <point x="198" y="-1"/>
      <point x="189" y="-26"/>
      <point x="157" y="-31" type="curve" smooth="yes"/>
      <point x="129.444444444" y="-34.4444444444"/>
      <point x="90.0" y="-30.0"/>
      <point x="90" y="-30" type="curve"/>
      <point x="90" y="-150" type="line"/>
      <point x="90.0" y="-150.0"/>
      <point x="156.8125" y="-163.375"/>
    </contour>
    <contour>
      <point x="198" y="1614" type="line"/>
      <point x="366" y="1614" type="line"/>
      <point x="366" y="1800" type="line"/>
      <point x="198" y="1800" type="line"/>
    </contour>
  </outline>
</glyph>
<glyph name="k" format="1">
  <advance width="758"/>
  <unicode hex="006B"/>
  <outline>
    <contour>
      <point x="115.0" y="1769.0" type="line"/>
      <point x="115.0" y="0.0" type="line"/>
      <point x="283.0" y="0.0" type="line"/>
      <point x="283.0" y="1769.0" type="line"/>
    </contour>
    <contour>
      <point x="278.0" y="743" type="line"/>
      <point x="577" y="0" type="line"/>
      <point x="746" y="0" type="line"/>
      <point x="445" y="757" type="line"/>
      <point x="738" y="1500" type="line"/>
      <point x="560" y="1500" type="line"/>
      <point x="278.0" y="759" type="line"/>
    </contour>
  </outline>
</glyph>
<glyph name="l" format="1">
  <advance width="480"/>
  <unicode hex="006C"/>
  <outline>
    <contour>
      <point x="156" y="0" type="line"/>
      <point x="324" y="0" type="line"/>
      <point x="324" y="1782" type="line"/>
      <point x="156" y="1782" type="line"/>
    </contour>
    <contour>
      <point x="240" y="0" type="move" name="top"/>
    </contour>
    <contour>
      <point x="240" y="0" type="move" name="bottom"/>
    </contour>
    <contour>
      <point x="460" y="0" type="move" name="topright"/>
    </contour>
  </outline>
</glyph>
<glyph name="m" format="1">
  <advance width="1386.0"/>
  <unicode hex="006D"/>
  <outline>
    <contour>
      <point x="156.0" y="0.0" type="line"/>
      <point x="324.0" y="0.0" type="line"/>
      <point x="324.0" y="1195" type="line" smooth="yes"/>
      <point x="324.0" y="1307"/>
      <point x="381.0" y="1368"/>
      <point x="484.0" y="1368" type="curve" smooth="yes"/>
      <point x="562.0" y="1368"/>
      <point x="614.0" y="1331"/>
      <point x="614.0" y="1214" type="curve" smooth="yes"/>
      <point x="614.0" y="0" type="line"/>
      <point x="782.0" y="0" type="line"/>
      <point x="782.0" y="1206" type="line"/>
      <point x="782.0" y="1420.66202132"/>
      <point x="690.625752552" y="1519.0"/>
      <point x="555.0" y="1519" type="curve" smooth="yes"/>
      <point x="437.0" y="1519"/>
      <point x="350.0" y="1437.0"/>
      <point x="324.0" y="1349.0" type="curve"/>
      <point x="324.0" y="1500.0" type="line"/>
      <point x="156.0" y="1500.0" type="line"/>
    </contour>
    <contour>
      <point x="1072.0" y="0" type="line"/>
      <point x="1240.0" y="0" type="line"/>
      <point x="1240.0" y="1206" type="line" smooth="yes"/>
      <point x="1240.0" y="1420.66202132"/>
      <point x="1148.62575255" y="1519.0"/>
      <point x="1013.0" y="1519" type="curve" smooth="yes"/>
      <point x="895.0" y="1519"/>
      <point x="797.0" y="1449"/>
      <point x="752.0" y="1352" type="curve" smooth="yes"/>
      <point x="752.0" y="1352"/>
      <point x="781.0" y="1205.0"/>
      <point x="781.0" y="1205" type="curve"/>
      <point x="781.0" y="1344"/>
      <point x="858.0" y="1368"/>
      <point x="941.0" y="1368" type="curve" smooth="yes"/>
      <point x="1019.0" y="1368"/>
      <point x="1072.0" y="1331"/>
      <point x="1072.0" y="1214" type="curve" smooth="yes"/>
    </contour>
  </outline>
</glyph>
<glyph name="n" format="1">
  <advance width="961"/>
  <unicode hex="006E"/>
  <outline>
    <contour>
      <point x="593" y="1374"/>
      <point x="635" y="1331"/>
      <point x="635" y="1214" type="curve" smooth="yes"/>
      <point x="635" y="0" type="line"/>
      <point x="803" y="0" type="line"/>
      <point x="803" y="1206" type="line" smooth="yes"/>
      <point x="803" y="1408"/>
      <point x="728" y="1506"/>
      <point x="600" y="1518" type="curve" smooth="yes"/>
      <point x="592" y="1519"/>
      <point x="584" y="1519"/>
      <point x="576" y="1519" type="curve" smooth="yes"/>
      <point x="458" y="1519"/>
      <point x="360" y="1437"/>
      <point x="334" y="1349" type="curve"/>
      <point x="334" y="1500" type="line"/>
      <point x="166" y="1500" type="line"/>
      <point x="166" y="0" type="line"/>
      <point x="334" y="0" type="line"/>
      <point x="334" y="1205" type="line"/>
      <point x="354" y="1288"/>
      <point x="452" y="1374"/>
      <point x="535" y="1374" type="curve" smooth="yes"/>
    </contour>
  </outline>
</glyph>
<glyph name="o" format="1">
  <advance width="796"/>
  <unicode hex="006F"/>
  <outline>
    <contour>
      <point x="401" y="132" type="curve" smooth="yes"/>
      <point x="275" y="132"/>
      <point x="265" y="258"/>
      <point x="265" y="455" type="curve" smooth="yes"/>
      <point x="265" y="1058" type="line" smooth="yes"/>
      <point x="265" y="1245"/>
      <point x="274" y="1368"/>
      <point x="401" y="1368" type="curve" smooth="yes"/>
      <point x="520" y="1368"/>
      <point x="531" y="1245"/>
      <point x="531" y="1058" type="curve" smooth="yes"/>
      <point x="531" y="455" type="line" smooth="yes"/>
      <point x="531" y="258"/>
      <point x="520" y="132"/>
    </contour>
    <contour>
      <point x="699" y="1021" type="line" smooth="yes"/>
      <point x="699" y="1304"/>
      <point x="672" y="1518"/>
      <point x="401" y="1518" type="curve" smooth="yes"/>
      <point x="131" y="1518"/>
      <point x="97" y="1303"/>
      <point x="97" y="1021" type="curve" smooth="yes"/>
      <point x="97" y="509" type="line" smooth="yes"/>
      <point x="97" y="198"/>
      <point x="122" y="-18"/>
      <point x="401" y="-18" type="curve" smooth="yes"/>
      <point x="682" y="-18"/>
      <point x="699" y="203"/>
      <point x="699" y="509" type="curve" smooth="yes"/>
    </contour>
  </outline>
</glyph>
<glyph name="p" format="1">
  <advance width="921.0"/>
  <unicode hex="0070"/>
  <outline>
    <contour>
      <point x="358.0" y="1314.0"/>
      <point x="410.0" y="1372.0"/>
      <point x="482.0" y="1372.0" type="curve" smooth="yes"/>
      <point x="484.0" y="1372.0" type="line" smooth="yes"/>
      <point x="583.0" y="1371.0"/>
      <point x="611.0" y="1266.0"/>
      <point x="611.0" y="1035.0" type="curve" smooth="yes"/>
      <point x="611.0" y="442.0" type="line" smooth="yes"/>
      <point x="611.0" y="255.0"/>
      <point x="597.0" y="132.0"/>
      <point x="470.0" y="132.0" type="curve" smooth="yes"/>
      <point x="420.0" y="132.0"/>
      <point x="368.0" y="174.0"/>
      <point x="334.0" y="224.0" type="curve"/>
      <point x="334.0" y="1276.0" type="line"/>
    </contour>
    <contour>
      <point x="457.0" y="1512.0"/>
      <point x="375.0" y="1479.0"/>
      <point x="334.0" y="1382.0" type="curve"/>
      <point x="334.0" y="1500.0" type="line"/>
      <point x="166.0" y="1500.0" type="line"/>
      <point x="166.0" y="-268.0" type="line"/>
      <point x="334.0" y="-268.0" type="line"/>
      <point x="334.0" y="105.0" type="line"/>
      <point x="362.0" y="39.0"/>
      <point x="426.0" y="-18.0"/>
      <point x="499.0" y="-18.0" type="curve" smooth="yes"/>
      <point x="729.0" y="-18.0"/>
      <point x="779.0" y="197.0"/>
      <point x="779.0" y="479.0" type="curve" smooth="yes"/>
      <point x="779.0" y="1019.0" type="line" smooth="yes"/>
      <point x="779.0" y="1300.0"/>
      <point x="745.0" y="1512.0"/>
      <point x="536.0" y="1512.0" type="curve" smooth="yes"/>
    </contour>
  </outline>
</glyph>
<glyph name="q" format="1">
  <advance width="907.0"/>
  <unicode hex="0071"/>
  <outline>
    <contour>
      <point x="439.0" y="1372.0" type="curve" smooth="yes"/>
      <point x="437.0" y="1372.0" type="line"/>
      <point x="338.0" y="1371.0"/>
      <point x="310.0" y="1266.0"/>
      <point x="310.0" y="1035.0" type="curve" smooth="yes"/>
      <point x="310.0" y="442.0" type="line" smooth="yes"/>
      <point x="310.0" y="255.0"/>
      <point x="324.0" y="132.0"/>
      <point x="451.0" y="132.0" type="curve" smooth="yes"/>
      <point x="501.0" y="132.0"/>
      <point x="553.0" y="174.0"/>
      <point x="587.0" y="224.0" type="curve"/>
      <point x="587.0" y="1276.0" type="line"/>
      <point x="563.0" y="1314.0"/>
      <point x="511.0" y="1372.0"/>
    </contour>
    <contour>
      <point x="587.0" y="1382.0" type="curve"/>
      <point x="587.0" y="1500.0" type="line"/>
      <point x="755.0" y="1500.0" type="line"/>
      <point x="755.0" y="-268.0" type="line"/>
      <point x="587.0" y="-268.0" type="line"/>
      <point x="587.0" y="105.0" type="line"/>
      <point x="559.0" y="39.0"/>
      <point x="495.0" y="-18.0"/>
      <point x="422.0" y="-18.0" type="curve" smooth="yes"/>
      <point x="192.0" y="-18.0"/>
      <point x="142.0" y="197.0"/>
      <point x="142.0" y="479.0" type="curve" smooth="yes"/>
      <point x="142.0" y="1019.0" type="line" smooth="yes"/>
      <point x="142.0" y="1300.0"/>
      <point x="176.0" y="1512.0"/>
      <point x="385.0" y="1512.0" type="curve" smooth="yes"/>
      <point x="464.0" y="1512.0"/>
      <point x="546.0" y="1479.0"/>
    </contour>
  </outline>
</glyph>
<glyph name="r" format="1">
  <advance width="569.395061728"/>
  <unicode hex="0072"/>
  <outline>
    <contour>
      <point x="283" y="1237" type="line"/>
      <point x="357" y="1345"/>
      <point x="443" y="1375"/>
      <point x="541" y="1375" type="curve"/>
      <point x="541" y="1375"/>
      <point x="543" y="1518"/>
      <point x="538" y="1518" type="curve" smooth="yes"/>
      <point x="405" y="1518"/>
      <point x="317" y="1449"/>
      <point x="283" y="1333" type="curve"/>
      <point x="283" y="1500" type="line"/>
      <point x="115" y="1500" type="line"/>
      <point x="115" y="0" type="line"/>
      <point x="283" y="0" type="line"/>
    </contour>
  </outline>
</glyph>
<glyph name="s" format="1">
  <advance width="773"/>
  <unicode hex="0073"/>
  <outline>
    <contour>
      <point x="415" y="-20" type="curve" smooth="yes"/>
      <point x="603" y="-20"/>
      <point x="710" y="96"/>
      <point x="710" y="331" type="curve" smooth="yes"/>
      <point x="710.0" y="547.381052047"/>
      <point x="609.09366105" y="668.097652881"/>
      <point x="502.720080203" y="772.461223264" type="curve" smooth="yes"/>
      <point x="473.529815202" y="801.099915802"/>
      <point x="443.927854049" y="828.507186752"/>
      <point x="415.886342903" y="856.32192121" type="curve" smooth="yes"/>
      <point x="327.460457376" y="944.032690873"/>
      <point x="254.551504203" y="1035.79523"/>
      <point x="259" y="1183" type="curve" smooth="yes"/>
      <point x="263" y="1310"/>
      <point x="292" y="1368"/>
      <point x="396" y="1368" type="curve" smooth="yes"/>
      <point x="515" y="1368"/>
      <point x="517" y="1266"/>
      <point x="517" y="1070" type="curve" smooth="yes"/>
      <point x="517" y="964" type="line"/>
      <point x="685" y="964" type="line"/>
      <point x="685" y="1030" type="line" smooth="yes"/>
      <point x="685" y="1320"/>
      <point x="666" y="1518"/>
      <point x="395" y="1518" type="curve" smooth="yes"/>
      <point x="181" y="1518"/>
      <point x="92" y="1398"/>
      <point x="92" y="1175" type="curve" smooth="yes"/>
      <point x="92.0" y="971.468261987"/>
      <point x="189.180565608" y="856.440253367"/>
      <point x="292.917419645" y="754.042136724" type="curve" smooth="yes"/>
      <point x="322.616234985" y="724.726588401"/>
      <point x="352.852416291" y="696.446210232"/>
      <point x="381.499476652" y="667.42063246" type="curve" smooth="yes"/>
      <point x="467.63334107" y="580.148669857"/>
      <point x="539.40091345" y="486.139803347"/>
      <point x="539" y="337" type="curve" smooth="yes"/>
      <point x="539" y="189"/>
      <point x="514.519" y="129"/>
      <point x="404" y="129" type="curve" smooth="yes"/>
      <point x="285" y="129"/>
      <point x="276" y="231"/>
      <point x="276" y="427" type="curve" smooth="yes"/>
      <point x="276" y="533" type="line"/>
      <point x="108" y="533" type="line"/>
      <point x="108" y="409" type="line" smooth="yes"/>
      <point x="108" y="169"/>
      <point x="159" y="-20"/>
    </contour>
  </outline>
</glyph>
<glyph name="t" format="1">
  <advance width="614"/>
  <unicode hex="0074"/>
  <outline>
    <contour>
      <point x="434" y="-9" type="curve" smooth="yes"/>
      <point x="550" y="-9" type="line"/>
      <point x="550" y="130" type="line"/>
      <point x="390" y="130"/>
      <point x="378" y="141"/>
      <point x="378" y="220" type="curve" smooth="yes"/>
      <point x="378.0" y="1314.0" type="line"/>
      <point x="550.0" y="1314.0" type="line"/>
      <point x="550.0" y="1442.0" type="line"/>
      <point x="378.0" y="1442.0" type="line"/>
      <point x="378.0" y="1760.0" type="line"/>
      <point x="210.0" y="1760.0" type="line"/>
      <point x="210.0" y="1442.0" type="line"/>
      <point x="64.0" y="1442.0" type="line"/>
      <point x="64.0" y="1314.0" type="line"/>
      <point x="210.0" y="1314.0" type="line"/>
      <point x="210" y="219" type="line" smooth="yes"/>
      <point x="210" y="50"/>
      <point x="241" y="-9"/>
    </contour>
  </outline>
</glyph>
<glyph name="u" format="1">
  <advance width="939"/>
  <unicode hex="0075"/>
  <outline>
    <contour>
      <point x="388" y="-20" type="curve" smooth="yes"/>
      <point x="506" y="-20"/>
      <point x="589" y="63"/>
      <point x="615" y="151" type="curve"/>
      <point x="615" y="0" type="line"/>
      <point x="783" y="0" type="line"/>
      <point x="783" y="1500" type="line"/>
      <point x="615" y="1500" type="line"/>
      <point x="615" y="315" type="line" smooth="yes"/>
      <point x="615" y="205"/>
      <point x="558" y="132"/>
      <point x="455" y="132" type="curve" smooth="yes"/>
      <point x="365" y="132"/>
      <point x="314" y="189"/>
      <point x="314" y="306" type="curve" smooth="yes"/>
      <point x="314" y="1500" type="line"/>
      <point x="146" y="1500" type="line"/>
      <point x="146" y="294" type="line" smooth="yes"/>
      <point x="146.0" y="56.3529411765"/>
      <point x="280" y="-20"/>
    </contour>
  </outline>
</glyph>
<glyph name="v" format="1">
  <advance width="724"/>
  <unicode hex="0076"/>
  <outline>
    <contour>
      <point x="508" y="1500" type="line"/>
      <point x="394" y="577" type="line"/>
      <point x="364" y="273" type="line"/>
      <point x="360" y="273" type="line"/>
      <point x="331" y="576" type="line"/>
      <point x="221" y="1500" type="line"/>
      <point x="61" y="1500" type="line"/>
      <point x="268" y="0" type="line"/>
      <point x="451" y="0" type="line"/>
      <point x="663" y="1500" type="line"/>
    </contour>
  </outline>
</glyph>
<glyph name="w" format="1">
  <advance width="1089"/>
  <unicode hex="0077"/>
  <outline>
    <contour>
      <point x="229" y="0" type="line"/>
      <point x="384" y="0" type="line"/>
      <point x="588" y="1500" type="line"/>
      <point x="475" y="1500" type="line"/>
      <point x="359" y="643" type="line"/>
      <point x="332" y="329" type="line"/>
      <point x="321" y="329" type="line"/>
      <point x="292" y="642" type="line"/>
      <point x="200" y="1500" type="line"/>
      <point x="46" y="1500" type="line"/>
    </contour>
    <contour>
      <point x="703" y="0" type="line"/>
      <point x="865" y="0" type="line"/>
      <point x="1045" y="1500" type="line"/>
      <point x="895" y="1500" type="line"/>
      <point x="821" y="673" type="line"/>
      <point x="800" y="329" type="line"/>
      <point x="790" y="329" type="line"/>
      <point x="750" y="672" type="line"/>
      <point x="619" y="1500" type="line"/>
      <point x="526" y="1500" type="line"/>
    </contour>
    <contour>
      <point x="545" y="0" type="move" name="top"/>
    </contour>
  </outline>
</glyph>
<glyph name="x" format="1">
  <advance width="694"/>
  <unicode hex="0078"/>
  <outline>
    <contour>
      <point x="31.0" y="0.0" type="line"/>
      <point x="181" y="0" type="line"/>
      <point x="402" y="784" type="line"/>
      <point x="418" y="784" type="line"/>
      <point x="656.0" y="1500.0" type="line"/>
      <point x="501" y="1500" type="line"/>
      <point x="295" y="780" type="line"/>
      <point x="278" y="780" type="line"/>
    </contour>
    <contour>
      <point x="508" y="0" type="line"/>
      <point x="664" y="0" type="line"/>
      <point x="204" y="1500" type="line"/>
      <point x="49" y="1500" type="line"/>
    </contour>
  </outline>
</glyph>
<glyph name="y" format="1">
  <advance width="819"/>
  <unicode hex="0079"/>
  <outline>
    <contour>
      <point x="116" y="-242" type="line"/>
      <point x="238" y="-242" type="line" smooth="yes"/>
      <point x="459" y="-242"/>
      <point x="487" y="-135"/>
      <point x="515" y="40" type="curve" smooth="yes"/>
      <point x="747" y="1500" type="line"/>
      <point x="572" y="1500" type="line"/>
      <point x="471" y="691" type="line"/>
      <point x="434" y="358" type="line"/>
      <point x="429" y="358" type="line"/>
      <point x="389" y="691" type="line"/>
      <point x="279" y="1500" type="line"/>
      <point x="103" y="1500" type="line"/>
      <point x="351" y="43" type="line" smooth="yes"/>
      <point x="371" y="-77"/>
      <point x="341" y="-105"/>
      <point x="228" y="-105" type="curve" smooth="yes"/>
      <point x="116" y="-105" type="line"/>
    </contour>
  </outline>
</glyph>
<glyph name="z" format="1">
  <advance width="650"/>
  <unicode hex="007A"/>
  <outline>
    <contour>
      <point x="80" y="0" type="line"/>
      <point x="567" y="0" type="line"/>
      <point x="567" y="145" type="line"/>
      <point x="253" y="145" type="line"/>
      <point x="586" y="1391" type="line"/>
      <point x="586" y="1500" type="line"/>
      <point x="105" y="1500" type="line"/>
      <point x="105" y="1355" type="line"/>
      <point x="409" y="1355" type="line"/>
      <point x="80" y="123" type="line"/>
    </contour>
  </outline>
</glyph>
<glyph name="guillemotleft" format="1">
  <advance width="1304"/>
  <unicode hex="00AB"/>
  <outline>
    <contour>
      <point x="608" y="260" type="line"/>
      <point x="608" y="618" type="line"/>
      <point x="296" y="749" type="line"/>
      <point x="608" y="871" type="line"/>
      <point x="608" y="1230" type="line"/>
      <point x="98" y="959" type="line"/>
      <point x="98" y="545" type="line"/>
    </contour>
    <contour>
      <point x="1186" y="260" type="line"/>
      <point x="1186" y="618" type="line"/>
      <point x="874" y="749" type="line"/>
      <point x="1186" y="871" type="line"/>
      <point x="1186" y="1230" type="line"/>
      <point x="676" y="959" type="line"/>
      <point x="676" y="545" type="line"/>
    </contour>
  </outline>
</glyph>
<glyph name="uni00B9" format="1">
  <advance width="630"/>
  <unicode hex="00B9"/>
  <outline>
    <contour>
      <point x="55" y="1624" type="curve"/>
      <point x="55" y="1450" type="line"/>
      <point x="112" y="1450"/>
      <point x="166" y="1462"/>
      <point x="217" y="1484" type="curve"/>
      <point x="217" y="681" type="line"/>
      <point x="495" y="681" type="line"/>
      <point x="495" y="1760" type="line"/>
      <point x="285" y="1760" type="line"/>
      <point x="285" y="1690"/>
      <point x="132" y="1624"/>
    </contour>
  </outline>
</glyph>
<glyph name="onehalf" format="1">
  <advance width="1620"/>
  <unicode hex="00BD"/>
  <outline>
    <contour>
      <point x="1000" y="-1" type="line"/>
      <point x="1519" y="-1" type="line"/>
      <point x="1519" y="182" type="line"/>
      <point x="1246" y="182" type="line"/>
      <point x="1336" y="355"/>
      <point x="1526" y="453"/>
      <point x="1526" y="712" type="curve" smooth="yes"/>
      <point x="1526" y="879"/>
      <point x="1428" y="974"/>
      <point x="1263" y="974" type="curve" smooth="yes"/>
      <point x="1052" y="974"/>
      <point x="998" y="864"/>
      <point x="998" y="646" type="curve" smooth="yes"/>
      <point x="1000" y="586" type="line"/>
      <point x="1210" y="586" type="line"/>
      <point x="1210" y="705" type="line" smooth="yes"/>
      <point x="1210" y="763"/>
      <point x="1227" y="792"/>
      <point x="1261" y="792" type="curve" smooth="yes"/>
      <point x="1296" y="792"/>
      <point x="1314" y="764"/>
      <point x="1314" y="709" type="curve" smooth="yes"/>
      <point x="1314" y="640"/>
      <point x="1297" y="586"/>
      <point x="1263" y="546" type="curve" smooth="yes"/>
      <point x="1128" y="383"/>
      <point x="1000" y="258"/>
      <point x="1000" y="46" type="curve" smooth="yes"/>
    </contour>
    <contour>
      <point x="205" y="656" type="line"/>
      <point x="435" y="656" type="line"/>
      <point x="435" y="1607" type="line"/>
      <point x="256" y="1607" type="line"/>
      <point x="256" y="1545"/>
      <point x="140" y="1487"/>
      <point x="82" y="1487" type="curve"/>
      <point x="82" y="1334" type="line"/>
      <point x="125" y="1334"/>
      <point x="166" y="1344"/>
      <point x="205" y="1364" type="curve"/>
    </contour>
    <contour>
      <point x="373" y="0" type="line"/>
      <point x="616" y="0" type="line"/>
      <point x="1147" y="1767" type="line"/>
      <point x="903" y="1767" type="line"/>
    </contour>
  </outline>
</glyph>
<glyph name="Acircumflex" format="1">
  <advance width="1103"/>
  <unicode hex="00C2"/>
  <outline>
    <contour>
      <point x="755.5" y="2347" type="line"/>
      <point x="347.5" y="2347" type="line"/>
      <point x="106.5" y="1944" type="line"/>
      <point x="465.5" y="1944" type="line"/>
      <point x="551.5" y="2229" type="line"/>
      <point x="637.5" y="1944" type="line"/>
      <point x="996.5" y="1944" type="line"/>
    </contour>
    <contour>
      <point x="477.0" y="565" type="line"/>
      <point x="550.0" y="1481" type="line"/>
      <point x="557.0" y="1481" type="line"/>
      <point x="637.0" y="565" type="line"/>
    </contour>
    <contour>
      <point x="68.0" y="0" type="line"/>
      <point x="430.0" y="0" type="line"/>
      <point x="452.0" y="281" type="line"/>
      <point x="664.0" y="281" type="line"/>
      <point x="689.0" y="0" type="line"/>
      <point x="1035.0" y="0" type="line"/>
      <point x="825.0" y="1761" type="line"/>
      <point x="274.0" y="1761" type="line"/>
    </contour>
  </outline>
</glyph>
<glyph name="Atilde" format="1">
  <advance width="1103"/>
  <unicode hex="00C3"/>
  <outline>
    <contour>
      <point x="715" y="1944" type="curve" smooth="yes"/>
      <point x="823" y="1944"/>
      <point x="891" y="2001"/>
      <point x="911" y="2144" type="curve" smooth="yes"/>
      <point x="920" y="2209" type="line"/>
      <point x="749" y="2237" type="line"/>
      <point x="728" y="2177"/>
      <point x="712" y="2169"/>
      <point x="693" y="2166" type="curve"/>
      <point x="689" y="2166" type="line" smooth="yes"/>
      <point x="639" y="2166"/>
      <point x="476" y="2240"/>
      <point x="395" y="2240" type="curve" smooth="yes"/>
      <point x="287" y="2240"/>
      <point x="222" y="2157"/>
      <point x="183" y="2022" type="curve"/>
      <point x="342" y="1965" type="line"/>
      <point x="360" y="2000"/>
      <point x="371" y="2019"/>
      <point x="393" y="2024" type="curve"/>
      <point x="400" y="2026"/>
      <point x="408" y="2026"/>
      <point x="416" y="2026" type="curve" smooth="yes"/>
      <point x="499" y="2026"/>
      <point x="627" y="1944"/>
    </contour>
    <contour>
      <point x="477" y="565" type="line"/>
      <point x="550" y="1481" type="line"/>
      <point x="557" y="1481" type="line"/>
      <point x="637" y="565" type="line"/>
    </contour>
    <contour>
      <point x="68" y="0" type="line"/>
      <point x="430" y="0" type="line"/>
      <point x="452" y="281" type="line"/>
      <point x="664" y="281" type="line"/>
      <point x="689" y="0" type="line"/>
      <point x="1035" y="0" type="line"/>
      <point x="825" y="1761" type="line"/>
      <point x="274" y="1761" type="line"/>
    </contour>
  </outline>
</glyph>
<glyph name="Adieresis" format="1">
  <advance width="1103"/>
  <unicode hex="00C4"/>
  <outline>
    <contour>
      <point x="614.5" y="1944" type="line"/>
      <point x="972.5" y="1944" type="line"/>
      <point x="972.5" y="2242" type="line"/>
      <point x="614.5" y="2242" type="line"/>
    </contour>
    <contour>
      <point x="130.5" y="1944" type="line"/>
      <point x="488.5" y="1944" type="line"/>
      <point x="488.5" y="2242" type="line"/>
      <point x="130.5" y="2242" type="line"/>
    </contour>
    <contour>
      <point x="477.0" y="565" type="line"/>
      <point x="550.0" y="1481" type="line"/>
      <point x="557.0" y="1481" type="line"/>
      <point x="637.0" y="565" type="line"/>
    </contour>
    <contour>
      <point x="68.0" y="0" type="line"/>
      <point x="430.0" y="0" type="line"/>
      <point x="452.0" y="281" type="line"/>
      <point x="664.0" y="281" type="line"/>
      <point x="689.0" y="0" type="line"/>
      <point x="1035.0" y="0" type="line"/>
      <point x="825.0" y="1761" type="line"/>
      <point x="274.0" y="1761" type="line"/>
    </contour>
  </outline>
</glyph>
<glyph name="Ccedilla" format="1">
  <advance width="1076"/>
  <unicode hex="00C7"/>
  <outline>
    <contour>
      <point x="539.0" y="-21.0" type="curve" smooth="yes"/>
      <point x="819.0" y="-21.0"/>
      <point x="987.0" y="116.0"/>
      <point x="987.0" y="425.0" type="curve" smooth="yes"/>
      <point x="987.0" y="758.0" type="line"/>
      <point x="631.0" y="758.0" type="line"/>
      <point x="631.0" y="420.0" type="line" smooth="yes"/>
      <point x="631.0" y="341.0"/>
      <point x="604.0" y="294.0"/>
      <point x="544.0" y="294.0" type="curve" smooth="yes"/>
      <point x="490.0" y="294.0"/>
      <point x="465.0" y="339.0"/>
      <point x="465.0" y="414.0" type="curve" smooth="yes"/>
      <point x="465.0" y="1326.0" type="line" smooth="yes"/>
      <point x="465.0" y="1404.0"/>
      <point x="481.0" y="1466.0"/>
      <point x="551.0" y="1466.0" type="curve" smooth="yes"/>
      <point x="607.0" y="1466.0"/>
      <point x="631.0" y="1429.0"/>
      <point x="631.0" y="1324.0" type="curve" smooth="yes"/>
      <point x="631.0" y="1058.0" type="line"/>
      <point x="979.0" y="1058.0" type="line"/>
      <point x="979.0" y="1368.0" type="line" smooth="yes"/>
      <point x="979.0" y="1645.0"/>
      <point x="797.0" y="1781.0"/>
      <point x="547.0" y="1781.0" type="curve" smooth="yes"/>
      <point x="242.0" y="1781.0"/>
      <point x="105.0" y="1595.0"/>
      <point x="105.0" y="1254.0" type="curve" smooth="yes"/>
      <point x="105.0" y="436.0" type="line" smooth="yes"/>
      <point x="105.0" y="151.0"/>
      <point x="284.0" y="-21.0"/>
    </contour>
    <contour>
      <point x="582.5" y="-669.633789062" type="curve" smooth="yes"/>
      <point x="784.967773438" y="-669.633789062"/>
      <point x="882.13671875" y="-544.073242188"/>
      <point x="882.13671875" y="-409.908203125" type="curve" smooth="yes"/>
      <point x="882.13671875" y="-282.572265625"/>
      <point x="784.608398438" y="-177.485351562"/>
      <point x="616.5" y="-134.633789062" type="curve"/>
      <point x="596.5" y="1.3662109375" type="line"/>
      <point x="495.5" y="1.3662109375" type="line"/>
      <point x="455.5" y="-194.633789062" type="line"/>
      <point x="537.5" y="-212.633789062"/>
      <point x="615.5" y="-267.633789062"/>
      <point x="615.5" y="-357.633789062" type="curve" smooth="yes"/>
      <point x="615.5" y="-432.633789062"/>
      <point x="573.5" y="-499.633789062"/>
      <point x="384.5" y="-499.633789062" type="curve"/>
      <point x="384.5" y="-629.633789062" type="line"/>
      <point x="448.5" y="-656.633789062"/>
      <point x="514.5" y="-669.633789062"/>
    </contour>
  </outline>
</glyph>
<glyph name="Icircumflex" format="1">
  <advance width="616"/>
  <unicode hex="00CE"/>
  <outline>
    <contour>
      <point x="-137" y="1944" type="line"/>
      <point x="222" y="1944" type="line"/>
      <point x="308" y="2229" type="line"/>
      <point x="394" y="1944" type="line"/>
      <point x="753" y="1944" type="line"/>
      <point x="512" y="2347" type="line"/>
      <point x="104" y="2347" type="line"/>
    </contour>
    <contour>
      <point x="128" y="0" type="line"/>
      <point x="488" y="0" type="line"/>
      <point x="488" y="1761" type="line"/>
      <point x="128" y="1761" type="line"/>
    </contour>
  </outline>
</glyph>
<glyph name="acircumflex" format="1">
  <advance width="1092"/>
  <unicode hex="00E2"/>
  <outline>
    <contour>
      <point x="404.0" y="-18" type="curve" smooth="yes"/>
      <point x="507.0" y="-18"/>
      <point x="594.0" y="53"/>
      <point x="629.0" y="178" type="curve"/>
      <point x="629.0" y="0" type="line"/>
      <point x="987.0" y="0" type="line"/>
      <point x="987.0" y="1143" type="line" smooth="yes"/>
      <point x="987.0" y="1387"/>
      <point x="803.0" y="1518"/>
      <point x="563.0" y="1518" type="curve" smooth="yes"/>
      <point x="257.0" y="1518"/>
      <point x="122.0" y="1403"/>
      <point x="122.0" y="1105" type="curve" smooth="yes"/>
      <point x="122.0" y="1056" type="line"/>
      <point x="471.0" y="1056" type="line"/>
      <point x="471.0" y="1146" type="line" smooth="yes"/>
      <point x="471.0" y="1201"/>
      <point x="492.0" y="1243"/>
      <point x="557.0" y="1239" type="curve" smooth="yes"/>
      <point x="602.0" y="1236"/>
      <point x="622.0" y="1213"/>
      <point x="622.0" y="1123" type="curve" smooth="yes"/>
      <point x="622.0" y="969" type="line"/>
      <point x="286.0" y="854"/>
      <point x="100.0" y="839"/>
      <point x="100.0" y="430" type="curve" smooth="yes"/>
      <point x="100.0" y="174"/>
      <point x="154.0" y="-18"/>
    </contour>
    <contour>
      <point x="98.5" y="1681" type="line"/>
      <point x="457.5" y="1681" type="line"/>
      <point x="543.5" y="1966" type="line"/>
      <point x="629.5" y="1681" type="line"/>
      <point x="988.5" y="1681" type="line"/>
      <point x="747.5" y="2084" type="line"/>
      <point x="339.5" y="2084" type="line"/>
    </contour>
    <contour>
      <point x="545.0" y="262" type="curve" smooth="yes"/>
      <point x="492.0" y="262"/>
      <point x="465.0" y="306"/>
      <point x="465.0" y="395" type="curve" smooth="yes"/>
      <point x="465.0" y="588" type="line" smooth="yes"/>
      <point x="465.0" y="705"/>
      <point x="523.0" y="757"/>
      <point x="622.0" y="797" type="curve"/>
      <point x="622.0" y="379" type="line" smooth="yes"/>
      <point x="622.0" y="322"/>
      <point x="603.0" y="262"/>
    </contour>
  </outline>
</glyph>
<glyph name="eacute" format="1">
  <advance width="1064"/>
  <unicode hex="00E9"/>
  <outline>
    <contour>
      <point x="530.0" y="-18" type="curve" smooth="yes"/>
      <point x="870.0" y="-18"/>
      <point x="976.0" y="138"/>
      <point x="976.0" y="475" type="curve" smooth="yes"/>
      <point x="976.0" y="579" type="line"/>
      <point x="624.0" y="579" type="line"/>
      <point x="624.0" y="431" type="line" smooth="yes"/>
      <point x="624.0" y="343"/>
      <point x="628.0" y="260"/>
      <point x="542.0" y="260" type="curve" smooth="yes"/>
      <point x="462.0" y="260"/>
      <point x="456.0" y="346"/>
      <point x="456.0" y="427" type="curve" smooth="yes"/>
      <point x="456.0" y="717" type="line"/>
      <point x="976.0" y="717" type="line"/>
      <point x="976.0" y="1092" type="line" smooth="yes"/>
      <point x="976.0" y="1376"/>
      <point x="836.0" y="1518"/>
      <point x="548.0" y="1518" type="curve" smooth="yes"/>
      <point x="268.0" y="1518"/>
      <point x="98.0" y="1371"/>
      <point x="98.0" y="1092" type="curve" smooth="yes"/>
      <point x="98.0" y="489" type="line" smooth="yes"/>
      <point x="98.0" y="170"/>
      <point x="209.0" y="-18"/>
    </contour>
    <contour>
      <point x="454.0" y="895" type="line"/>
      <point x="454.0" y="1081" type="line" smooth="yes"/>
      <point x="454.0" y="1170"/>
      <point x="457.0" y="1249"/>
      <point x="544.0" y="1249" type="curve" smooth="yes"/>
      <point x="597.0" y="1249"/>
      <point x="624.0" y="1195"/>
      <point x="624.0" y="1087" type="curve" smooth="yes"/>
      <point x="624.0" y="895" type="line"/>
    </contour>
    <contour>
      <point x="301.5" y="1681" type="line"/>
      <point x="776.5" y="1775" type="line"/>
      <point x="776.5" y="2122" type="line"/>
      <point x="301.5" y="1904" type="line"/>
    </contour>
  </outline>
</glyph>
<glyph name="eth" format="1">
  <advance width="1080"/>
  <unicode hex="00F0"/>
  <outline>
    <contour>
      <point x="81" y="157"/>
      <point x="195" y="-21"/>
      <point x="536" y="-21" type="curve" smooth="yes"/>
      <point x="903" y="-21"/>
      <point x="975" y="145"/>
      <point x="975" y="543" type="curve" smooth="yes"/>
      <point x="975" y="779" type="line" smooth="yes"/>
      <point x="975" y="1095.5"/>
      <point x="902.455" y="1323.96"/>
      <point x="804.313" y="1484.96" type="curve"/>
      <point x="966" y="1568.8" type="line"/>
      <point x="891" y="1734.8" type="line"/>
      <point x="692.286" y="1631.76" type="line"/>
      <point x="624.966" y="1702.33"/>
      <point x="554.322" y="1750.52"/>
      <point x="491" y="1781" type="curve"/>
      <point x="248" y="1622" type="line"/>
      <point x="308.204" y="1578.06"/>
      <point x="360.468" y="1531.11"/>
      <point x="404.875" y="1482.74" type="curve"/>
      <point x="243" y="1398.8" type="line"/>
      <point x="318" y="1232.8" type="line"/>
      <point x="514.66" y="1334.77" type="line"/>
      <point x="568.398" y="1241.96"/>
      <point x="595" y="1149.63"/>
      <point x="595" y="1068" type="curve"/>
      <point x="564" y="1081"/>
      <point x="536" y="1095"/>
      <point x="446" y="1095" type="curve" smooth="yes"/>
      <point x="197" y="1095"/>
      <point x="81" y="916"/>
      <point x="81" y="609" type="curve" smooth="yes"/>
      <point x="81" y="515" type="line" smooth="yes"/>
    </contour>
    <contour>
      <point x="615" y="331"/>
      <point x="591" y="294"/>
      <point x="532" y="294" type="curve" smooth="yes"/>
      <point x="466" y="294"/>
      <point x="441" y="336"/>
      <point x="441" y="424" type="curve" smooth="yes"/>
      <point x="441" y="665" type="line" smooth="yes"/>
      <point x="441" y="749"/>
      <point x="464" y="792"/>
      <point x="525" y="792" type="curve" smooth="yes"/>
      <point x="587" y="792"/>
      <point x="615" y="755"/>
      <point x="615" y="660" type="curve" smooth="yes"/>
      <point x="615" y="418" type="line" smooth="yes"/>
    </contour>
  </outline>
</glyph>
<glyph name="otilde" format="1">
  <advance width="1076"/>
  <unicode hex="00F5"/>
  <outline>
    <contour>
      <point x="701.5" y="1681" type="curve" smooth="yes"/>
      <point x="809.5" y="1681"/>
      <point x="877.5" y="1738"/>
      <point x="897.5" y="1881" type="curve" smooth="yes"/>
      <point x="906.5" y="1946" type="line"/>
      <point x="735.5" y="1974" type="line"/>
      <point x="714.5" y="1914"/>
      <point x="698.5" y="1906"/>
      <point x="679.5" y="1903" type="curve"/>
      <point x="675.5" y="1903" type="line" smooth="yes"/>
      <point x="625.5" y="1903"/>
      <point x="462.5" y="1977"/>
      <point x="381.5" y="1977" type="curve" smooth="yes"/>
      <point x="273.5" y="1977"/>
      <point x="208.5" y="1894"/>
      <point x="169.5" y="1759" type="curve"/>
      <point x="328.5" y="1702" type="line"/>
      <point x="346.5" y="1737"/>
      <point x="357.5" y="1756"/>
      <point x="379.5" y="1761" type="curve"/>
      <point x="386.5" y="1763"/>
      <point x="394.5" y="1763"/>
      <point x="402.5" y="1763" type="curve" smooth="yes"/>
      <point x="485.5" y="1763"/>
      <point x="613.5" y="1681"/>
    </contour>
    <contour>
      <point x="538.0" y="260" type="curve" smooth="yes"/>
      <point x="478.0" y="260"/>
      <point x="454.0" y="308"/>
      <point x="454.0" y="375" type="curve" smooth="yes"/>
      <point x="454.0" y="1108" type="line" smooth="yes"/>
      <point x="454.0" y="1195"/>
      <point x="482.0" y="1239"/>
      <point x="538.0" y="1239" type="curve" smooth="yes"/>
      <point x="594.0" y="1239"/>
      <point x="622.0" y="1195"/>
      <point x="622.0" y="1108" type="curve" smooth="yes"/>
      <point x="622.0" y="375" type="line" smooth="yes"/>
      <point x="622.0" y="308"/>
      <point x="598.0" y="260"/>
    </contour>
    <contour>
      <point x="538.0" y="-18" type="curve" smooth="yes"/>
      <point x="839.0" y="-18"/>
      <point x="978.0" y="143"/>
      <point x="978.0" y="449" type="curve" smooth="yes"/>
      <point x="978.0" y="1051" type="line" smooth="yes"/>
      <point x="978.0" y="1334"/>
      <point x="819.0" y="1518"/>
      <point x="538.0" y="1518" type="curve" smooth="yes"/>
      <point x="258.0" y="1518"/>
      <point x="98.0" y="1333"/>
      <point x="98.0" y="1051" type="curve" smooth="yes"/>
      <point x="98.0" y="449" type="line" smooth="yes"/>
      <point x="98.0" y="138"/>
      <point x="239.0" y="-18"/>
    </contour>
  </outline>
</glyph>
<glyph name="ugrave" format="1">
  <advance width="1099"/>
  <unicode hex="00F9"/>
  <outline>
    <contour>
      <point x="105" y="143"/>
      <point x="157" y="-18"/>
      <point x="398" y="-18" type="curve" smooth="yes"/>
      <point x="534" y="-18"/>
      <point x="583" y="45"/>
      <point x="629" y="160" type="curve"/>
      <point x="629" y="0" type="line"/>
      <point x="987" y="0" type="line"/>
      <point x="987" y="1500" type="line"/>
      <point x="631" y="1500" type="line"/>
      <point x="629" y="443" type="line"/>
      <point x="629" y="360"/>
      <point x="628" y="264"/>
      <point x="545" y="264" type="curve" smooth="yes"/>
      <point x="457" y="264"/>
      <point x="465" y="342"/>
      <point x="465" y="455" type="curve" smooth="yes"/>
      <point x="465" y="1500" type="line"/>
      <point x="105" y="1500" type="line"/>
      <point x="105" y="383" type="line" smooth="yes"/>
    </contour>
    <contour>
      <point x="783.5" y="1681" type="line"/>
      <point x="783.5" y="1904" type="line"/>
      <point x="308.5" y="2122" type="line"/>
      <point x="308.5" y="1775" type="line"/>
    </contour>
  </outline>
</glyph>
<glyph name="yacute" format="1">
  <advance width="952"/>
  <unicode hex="00FD"/>
  <outline>
    <contour>
      <point x="244.5" y="1681" type="line"/>
      <point x="719.5" y="1775" type="line"/>
      <point x="719.5" y="2122" type="line"/>
      <point x="244.5" y="1904" type="line"/>
    </contour>
    <contour>
      <point x="56.0" y="-250" type="line"/>
      <point x="460.0" y="-250" type="line" smooth="yes"/>
      <point x="589.0" y="-250"/>
      <point x="641.0" y="-192"/>
      <point x="657.0" y="-78" type="curve" smooth="yes"/>
      <point x="935.0" y="1501" type="line"/>
      <point x="594.0" y="1501" type="line"/>
      <point x="522.0" y="815" type="line"/>
      <point x="495.0" y="483" type="line"/>
      <point x="480.0" y="483" type="line"/>
      <point x="448.0" y="815" type="line"/>
      <point x="374.0" y="1501" type="line"/>
      <point x="29.0" y="1501" type="line"/>
      <point x="260.0" y="91" type="line" smooth="yes"/>
      <point x="263.0" y="69"/>
      <point x="265.0" y="52"/>
      <point x="265.0" y="39" type="curve" smooth="yes"/>
      <point x="265.0" y="-15"/>
      <point x="230.0" y="-23"/>
      <point x="168.0" y="-23" type="curve" smooth="yes"/>
      <point x="56.0" y="-23" type="line"/>
    </contour>
  </outline>
</glyph>
<glyph name="ydieresis" format="1">
  <advance width="952"/>
  <unicode hex="00FF"/>
  <outline>
    <contour>
      <point x="56" y="-250" type="line"/>
      <point x="460" y="-250" type="line" smooth="yes"/>
      <point x="589" y="-250"/>
      <point x="641" y="-192"/>
      <point x="657" y="-78" type="curve" smooth="yes"/>
      <point x="935" y="1501" type="line"/>
      <point x="594" y="1501" type="line"/>
      <point x="522" y="815" type="line"/>
      <point x="495" y="483" type="line"/>
      <point x="480" y="483" type="line"/>
      <point x="448" y="815" type="line"/>
      <point x="374" y="1501" type="line"/>
      <point x="29" y="1501" type="line"/>
      <point x="260" y="91" type="line" smooth="yes"/>
      <point x="263" y="69"/>
      <point x="265" y="52"/>
      <point x="265" y="39" type="curve" smooth="yes"/>
      <point x="265" y="-15"/>
      <point x="230" y="-23"/>
      <point x="168" y="-23" type="curve" smooth="yes"/>
      <point x="56" y="-23" type="line"/>
    </contour>
    <contour>
      <point x="61" y="1681" type="line"/>
      <point x="419" y="1681" type="line"/>
      <point x="419" y="1979" type="line"/>
      <point x="61" y="1979" type="line"/>
    </contour>
    <contour>
      <point x="545" y="1681" type="line"/>
      <point x="903" y="1681" type="line"/>
      <point x="903" y="1979" type="line"/>
      <point x="545" y="1979" type="line"/>
    </contour>
  </outline>
</glyph>
<glyph name="Abreve" format="1">
  <advance width="1103"/>
  <unicode hex="0102"/>
  <outline>
    <contour>
      <point x="68" y="0" type="line"/>
      <point x="430" y="0" type="line"/>
      <point x="452" y="281" type="line"/>
      <point x="664" y="281" type="line"/>
      <point x="689" y="0" type="line"/>
      <point x="1035" y="0" type="line"/>
      <point x="825" y="1761" type="line"/>
      <point x="274" y="1761" type="line"/>
    </contour>
    <contour>
      <point x="198.5" y="2045"/>
      <point x="315.5" y="1944"/>
      <point x="549.5" y="1944" type="curve" smooth="yes"/>
      <point x="789.5" y="1944"/>
      <point x="904.5" y="2041"/>
      <point x="904.5" y="2264" type="curve" smooth="yes"/>
      <point x="904.5" y="2277" type="line"/>
      <point x="686.5" y="2277" type="line"/>
      <point x="686.5" y="2152"/>
      <point x="634.5" y="2134"/>
      <point x="551.5" y="2134" type="curve" smooth="yes"/>
      <point x="468.5" y="2134"/>
      <point x="416.5" y="2152"/>
      <point x="416.5" y="2277" type="curve"/>
      <point x="198.5" y="2277" type="line"/>
      <point x="198.5" y="2262" type="line" smooth="yes"/>
    </contour>
    <contour>
      <point x="477" y="565" type="line"/>
      <point x="550" y="1481" type="line"/>
      <point x="557" y="1481" type="line"/>
      <point x="637" y="565" type="line"/>
    </contour>
  </outline>
</glyph>
<glyph name="abreve" format="1">
  <advance width="1092"/>
  <unicode hex="0103"/>
  <outline>
    <contour>
      <point x="100" y="174"/>
      <point x="154" y="-18"/>
      <point x="404" y="-18" type="curve" smooth="yes"/>
      <point x="507" y="-18"/>
      <point x="594" y="53"/>
      <point x="629" y="178" type="curve"/>
      <point x="629" y="0" type="line"/>
      <point x="987" y="0" type="line"/>
      <point x="987" y="1143" type="line" smooth="yes"/>
      <point x="987" y="1387"/>
      <point x="803" y="1518"/>
      <point x="563" y="1518" type="curve" smooth="yes"/>
      <point x="257" y="1518"/>
      <point x="122" y="1403"/>
      <point x="122" y="1105" type="curve" smooth="yes"/>
      <point x="122" y="1056" type="line"/>
      <point x="471" y="1056" type="line"/>
      <point x="471" y="1146" type="line" smooth="yes"/>
      <point x="471" y="1201"/>
      <point x="492" y="1243"/>
      <point x="557" y="1239" type="curve" smooth="yes"/>
      <point x="602" y="1236"/>
      <point x="622" y="1213"/>
      <point x="622" y="1123" type="curve" smooth="yes"/>
      <point x="622" y="969" type="line"/>
      <point x="286" y="854"/>
      <point x="100" y="839"/>
      <point x="100" y="430" type="curve" smooth="yes"/>
    </contour>
    <contour>
      <point x="190.5" y="1782"/>
      <point x="307.5" y="1681"/>
      <point x="541.5" y="1681" type="curve" smooth="yes"/>
      <point x="781.5" y="1681"/>
      <point x="896.5" y="1778"/>
      <point x="896.5" y="2001" type="curve" smooth="yes"/>
      <point x="896.5" y="2014" type="line"/>
      <point x="678.5" y="2014" type="line"/>
      <point x="678.5" y="1889"/>
      <point x="626.5" y="1871"/>
      <point x="543.5" y="1871" type="curve" smooth="yes"/>
      <point x="460.5" y="1871"/>
      <point x="408.5" y="1889"/>
      <point x="408.5" y="2014" type="curve"/>
      <point x="190.5" y="2014" type="line"/>
      <point x="190.5" y="1999" type="line" smooth="yes"/>
    </contour>
    <contour>
      <point x="622" y="322"/>
      <point x="603" y="262"/>
      <point x="545" y="262" type="curve" smooth="yes"/>
      <point x="492" y="262"/>
      <point x="465" y="306"/>
      <point x="465" y="395" type="curve" smooth="yes"/>
      <point x="465" y="588" type="line" smooth="yes"/>
      <point x="465" y="705"/>
      <point x="523" y="757"/>
      <point x="622" y="797" type="curve"/>
      <point x="622" y="379" type="line" smooth="yes"/>
    </contour>
  </outline>
</glyph>
<glyph name="aogonek" format="1">
  <advance width="1092"/>
  <unicode hex="0105"/>
  <outline>
    <contour>
      <point x="100" y="174"/>
      <point x="154" y="-18"/>
      <point x="404" y="-18" type="curve" smooth="yes"/>
      <point x="507" y="-18"/>
      <point x="594" y="53"/>
      <point x="629" y="178" type="curve"/>
      <point x="629" y="0" type="line"/>
      <point x="987" y="0" type="line"/>
      <point x="987" y="1143" type="line" smooth="yes"/>
      <point x="987" y="1387"/>
      <point x="803" y="1518"/>
      <point x="563" y="1518" type="curve" smooth="yes"/>
      <point x="257" y="1518"/>
      <point x="122" y="1403"/>
      <point x="122" y="1105" type="curve" smooth="yes"/>
      <point x="122" y="1056" type="line"/>
      <point x="471" y="1056" type="line"/>
      <point x="471" y="1146" type="line" smooth="yes"/>
      <point x="471" y="1201"/>
      <point x="492" y="1243"/>
      <point x="557" y="1239" type="curve" smooth="yes"/>
      <point x="602" y="1236"/>
      <point x="622" y="1213"/>
      <point x="622" y="1123" type="curve" smooth="yes"/>
      <point x="622" y="969" type="line"/>
      <point x="286" y="854"/>
      <point x="100" y="839"/>
      <point x="100" y="430" type="curve" smooth="yes"/>
    </contour>
    <contour>
      <point x="533.5" y="-531.134"/>
      <point x="650.5" y="-623.134"/>
      <point x="840.5" y="-623.134" type="curve" smooth="yes"/>
      <point x="908.5" y="-623.134"/>
      <point x="986.5" y="-601.134"/>
      <point x="1009.5" y="-588.134" type="curve"/>
      <point x="1009.5" y="-415.134" type="line"/>
      <point x="985.5" y="-420.134"/>
      <point x="959.5" y="-423.134"/>
      <point x="934.5" y="-423.134" type="curve" smooth="yes"/>
      <point x="854.5" y="-423.134"/>
      <point x="778.5" y="-393.134"/>
      <point x="778.5" y="-296.134" type="curve" smooth="yes"/>
      <point x="778.5" y="-186.134"/>
      <point x="854.5" y="-87.1338"/>
      <point x="928.5" y="2.86621" type="curve"/>
      <point x="787.5" y="2.86621" type="line"/>
      <point x="611.5" y="-96.1338"/>
      <point x="533.5" y="-236.134"/>
      <point x="533.5" y="-357.134" type="curve" smooth="yes"/>
    </contour>
    <contour>
      <point x="622" y="322"/>
      <point x="603" y="262"/>
      <point x="545" y="262" type="curve" smooth="yes"/>
      <point x="492" y="262"/>
      <point x="465" y="306"/>
      <point x="465" y="395" type="curve" smooth="yes"/>
      <point x="465" y="588" type="line" smooth="yes"/>
      <point x="465" y="705"/>
      <point x="523" y="757"/>
      <point x="622" y="797" type="curve"/>
      <point x="622" y="379" type="line" smooth="yes"/>
    </contour>
  </outline>
</glyph>
<glyph name="Cacute" format="1">
  <advance width="1076"/>
  <unicode hex="0106"/>
  <outline>
    <contour>
      <point x="539.0" y="-21" type="curve" smooth="yes"/>
      <point x="819.0" y="-21"/>
      <point x="987.0" y="116"/>
      <point x="987.0" y="425" type="curve" smooth="yes"/>
      <point x="987.0" y="758" type="line"/>
      <point x="631.0" y="758" type="line"/>
      <point x="631.0" y="420" type="line" smooth="yes"/>
      <point x="631.0" y="341"/>
      <point x="604.0" y="294"/>
      <point x="544.0" y="294" type="curve" smooth="yes"/>
      <point x="490.0" y="294"/>
      <point x="465.0" y="339"/>
      <point x="465.0" y="414" type="curve" smooth="yes"/>
      <point x="465.0" y="1326" type="line" smooth="yes"/>
      <point x="465.0" y="1404"/>
      <point x="481.0" y="1466"/>
      <point x="551.0" y="1466" type="curve" smooth="yes"/>
      <point x="607.0" y="1466"/>
      <point x="631.0" y="1429"/>
      <point x="631.0" y="1324" type="curve" smooth="yes"/>
      <point x="631.0" y="1058" type="line"/>
      <point x="979.0" y="1058" type="line"/>
      <point x="979.0" y="1368" type="line" smooth="yes"/>
      <point x="979.0" y="1645"/>
      <point x="797.0" y="1781"/>
      <point x="547.0" y="1781" type="curve" smooth="yes"/>
      <point x="242.0" y="1781"/>
      <point x="105.0" y="1595"/>
      <point x="105.0" y="1254" type="curve" smooth="yes"/>
      <point x="105.0" y="436" type="line" smooth="yes"/>
      <point x="105.0" y="151"/>
      <point x="284.0" y="-21"/>
    </contour>
    <contour>
      <point x="308.5" y="1944" type="line"/>
      <point x="783.5" y="2038" type="line"/>
      <point x="783.5" y="2385" type="line"/>
      <point x="308.5" y="2167" type="line"/>
    </contour>
  </outline>
</glyph>
<glyph name="Ccircumflex" format="1">
  <advance width="1076"/>
  <unicode hex="0108"/>
  <outline>
    <contour>
      <point x="539" y="-21" type="curve" smooth="yes"/>
      <point x="819" y="-21"/>
      <point x="987" y="116"/>
      <point x="987" y="425" type="curve" smooth="yes"/>
      <point x="987" y="758" type="line"/>
      <point x="631" y="758" type="line"/>
      <point x="631" y="420" type="line" smooth="yes"/>
      <point x="631" y="341"/>
      <point x="604" y="294"/>
      <point x="544" y="294" type="curve" smooth="yes"/>
      <point x="490" y="294"/>
      <point x="465" y="339"/>
      <point x="465" y="414" type="curve" smooth="yes"/>
      <point x="465" y="1326" type="line" smooth="yes"/>
      <point x="465" y="1404"/>
      <point x="481" y="1466"/>
      <point x="551" y="1466" type="curve" smooth="yes"/>
      <point x="607" y="1466"/>
      <point x="631" y="1429"/>
      <point x="631" y="1324" type="curve" smooth="yes"/>
      <point x="631" y="1058" type="line"/>
      <point x="979" y="1058" type="line"/>
      <point x="979" y="1368" type="line" smooth="yes"/>
      <point x="979" y="1645"/>
      <point x="797" y="1781"/>
      <point x="547" y="1781" type="curve" smooth="yes"/>
      <point x="242" y="1781"/>
      <point x="105" y="1595"/>
      <point x="105" y="1254" type="curve" smooth="yes"/>
      <point x="105" y="436" type="line" smooth="yes"/>
      <point x="105" y="151"/>
      <point x="284" y="-21"/>
    </contour>
    <contour>
      <point x="101" y="1944" type="line"/>
      <point x="460" y="1944" type="line"/>
      <point x="546" y="2229" type="line"/>
      <point x="632" y="1944" type="line"/>
      <point x="991" y="1944" type="line"/>
      <point x="750" y="2347" type="line"/>
      <point x="342" y="2347" type="line"/>
    </contour>
  </outline>
</glyph>
<glyph name="ccaron" format="1">
  <advance width="1043"/>
  <unicode hex="010D"/>
  <outline>
    <contour>
      <point x="553" y="-18" type="curve" smooth="yes"/>
      <point x="803" y="-18"/>
      <point x="961" y="130"/>
      <point x="961" y="379" type="curve" smooth="yes"/>
      <point x="961" y="614" type="line"/>
      <point x="623" y="614" type="line"/>
      <point x="623" y="389" type="line" smooth="yes"/>
      <point x="623" y="322"/>
      <point x="602" y="264"/>
      <point x="540" y="264" type="curve" smooth="yes"/>
      <point x="479" y="264"/>
      <point x="454" y="326"/>
      <point x="454" y="387" type="curve" smooth="yes"/>
      <point x="454" y="1114" type="line" smooth="yes"/>
      <point x="454" y="1197"/>
      <point x="483" y="1239"/>
      <point x="542" y="1239" type="curve" smooth="yes"/>
      <point x="609" y="1239"/>
      <point x="623" y="1185"/>
      <point x="623" y="1116" type="curve" smooth="yes"/>
      <point x="623" y="879" type="line"/>
      <point x="961" y="879" type="line"/>
      <point x="961" y="1135" type="line" smooth="yes"/>
      <point x="961" y="1380"/>
      <point x="800" y="1518"/>
      <point x="552" y="1518" type="curve" smooth="yes"/>
      <point x="195" y="1518"/>
      <point x="98" y="1330"/>
      <point x="98" y="954" type="curve" smooth="yes"/>
      <point x="98" y="492" type="line" smooth="yes"/>
      <point x="98" y="158"/>
      <point x="217" y="-18"/>
    </contour>
    <contour>
      <point x="334" y="1681" type="line"/>
      <point x="742" y="1681" type="line"/>
      <point x="983" y="2084" type="line"/>
      <point x="624" y="2084" type="line"/>
      <point x="538" y="1799" type="line"/>
      <point x="452" y="2084" type="line"/>
      <point x="93" y="2084" type="line"/>
    </contour>
  </outline>
</glyph>
<glyph name="Dcroat" format="1">
  <advance width="1109"/>
  <unicode hex="0110"/>
  <outline>
    <contour>
      <point x="482" y="270" type="line"/>
      <point x="482" y="815" type="line"/>
      <point x="573" y="815" type="line"/>
      <point x="573" y="1018" type="line"/>
      <point x="482" y="1018" type="line"/>
      <point x="482" y="1490" type="line"/>
      <point x="521" y="1490" type="line" smooth="yes"/>
      <point x="621" y="1490"/>
      <point x="644" y="1440"/>
      <point x="644" y="1323" type="curve" smooth="yes"/>
      <point x="644" y="364" type="line" smooth="yes"/>
      <point x="644" y="301"/>
      <point x="610" y="270"/>
      <point x="543" y="270" type="curve" smooth="yes"/>
    </contour>
    <contour>
      <point x="122" y="0" type="line"/>
      <point x="601" y="0" type="line" smooth="yes"/>
      <point x="893" y="0"/>
      <point x="1004" y="189"/>
      <point x="1004" y="522" type="curve" smooth="yes"/>
      <point x="1004" y="1347" type="line" smooth="yes"/>
      <point x="1004" y="1617"/>
      <point x="866" y="1761"/>
      <point x="613" y="1761" type="curve" smooth="yes"/>
      <point x="122" y="1761" type="line"/>
      <point x="122" y="1018" type="line"/>
      <point x="25" y="1018" type="line"/>
      <point x="25" y="815" type="line"/>
      <point x="122" y="815" type="line"/>
    </contour>
  </outline>
</glyph>
<glyph name="dcroat" format="1">
  <advance width="1094"/>
  <unicode hex="0111"/>
  <outline>
    <contour>
      <point x="98" y="201"/>
      <point x="126" y="-18"/>
      <point x="403" y="-18" type="curve" smooth="yes"/>
      <point x="528" y="-18"/>
      <point x="586" y="51"/>
      <point x="626" y="159" type="curve"/>
      <point x="626" y="0" type="line"/>
      <point x="982" y="0" type="line"/>
      <point x="982" y="1468" type="line"/>
      <point x="1094" y="1468" type="line"/>
      <point x="1094" y="1638" type="line"/>
      <point x="982" y="1638" type="line"/>
      <point x="982" y="1767" type="line"/>
      <point x="626" y="1767" type="line"/>
      <point x="626" y="1638" type="line"/>
      <point x="278" y="1638" type="line"/>
      <point x="278" y="1468" type="line"/>
      <point x="626" y="1468" type="line"/>
      <point x="626" y="1239" type="line"/>
      <point x="577" y="1305"/>
      <point x="504" y="1338"/>
      <point x="409" y="1338" type="curve" smooth="yes"/>
      <point x="204" y="1338"/>
      <point x="98" y="1177"/>
      <point x="98" y="973" type="curve" smooth="yes"/>
      <point x="98" y="477" type="line" smooth="yes"/>
    </contour>
    <contour>
      <point x="626" y="422"/>
      <point x="638" y="264"/>
      <point x="540" y="264" type="curve" smooth="yes"/>
      <point x="483" y="264"/>
      <point x="454" y="327"/>
      <point x="454" y="452" type="curve" smooth="yes"/>
      <point x="454" y="903" type="line" smooth="yes"/>
      <point x="454" y="980"/>
      <point x="465" y="1059"/>
      <point x="542" y="1059" type="curve" smooth="yes"/>
      <point x="612" y="1059"/>
      <point x="626" y="973"/>
      <point x="626" y="903" type="curve" smooth="yes"/>
      <point x="626" y="520" type="line" smooth="yes"/>
    </contour>
  </outline>
</glyph>
<glyph name="eogonek" format="1">
  <advance width="1064"/>
  <unicode hex="0119"/>
  <outline>
    <contour>
      <point x="98" y="170"/>
      <point x="209" y="-18"/>
      <point x="530" y="-18" type="curve" smooth="yes"/>
      <point x="870" y="-18"/>
      <point x="976" y="138"/>
      <point x="976" y="475" type="curve" smooth="yes"/>
      <point x="976" y="579" type="line"/>
      <point x="624" y="579" type="line"/>
      <point x="624" y="431" type="line" smooth="yes"/>
      <point x="624" y="343"/>
      <point x="628" y="260"/>
      <point x="542" y="260" type="curve" smooth="yes"/>
      <point x="462" y="260"/>
      <point x="456" y="346"/>
      <point x="456" y="427" type="curve" smooth="yes"/>
      <point x="456" y="717" type="line"/>
      <point x="976" y="717" type="line"/>
      <point x="976" y="1092" type="line" smooth="yes"/>
      <point x="976" y="1376"/>
      <point x="836" y="1518"/>
      <point x="548" y="1518" type="curve" smooth="yes"/>
      <point x="268" y="1518"/>
      <point x="98" y="1371"/>
      <point x="98" y="1092" type="curve" smooth="yes"/>
      <point x="98" y="489" type="line" smooth="yes"/>
    </contour>
    <contour>
      <point x="214.5" y="-531.134"/>
      <point x="331.5" y="-623.134"/>
      <point x="521.5" y="-623.134" type="curve" smooth="yes"/>
      <point x="589.5" y="-623.134"/>
      <point x="667.5" y="-601.134"/>
      <point x="690.5" y="-588.134" type="curve"/>
      <point x="690.5" y="-415.134" type="line"/>
      <point x="666.5" y="-420.134"/>
      <point x="640.5" y="-423.134"/>
      <point x="615.5" y="-423.134" type="curve" smooth="yes"/>
      <point x="535.5" y="-423.134"/>
      <point x="459.5" y="-393.134"/>
      <point x="459.5" y="-296.134" type="curve" smooth="yes"/>
      <point x="459.5" y="-186.134"/>
      <point x="535.5" y="-87.1338"/>
      <point x="609.5" y="2.86621" type="curve"/>
      <point x="468.5" y="2.86621" type="line"/>
      <point x="292.5" y="-96.1338"/>
      <point x="214.5" y="-236.134"/>
      <point x="214.5" y="-357.134" type="curve" smooth="yes"/>
    </contour>
    <contour>
      <point x="454" y="895" type="line"/>
      <point x="454" y="1081" type="line" smooth="yes"/>
      <point x="454" y="1170"/>
      <point x="457" y="1249"/>
      <point x="544" y="1249" type="curve" smooth="yes"/>
      <point x="597" y="1249"/>
      <point x="624" y="1195"/>
      <point x="624" y="1087" type="curve" smooth="yes"/>
      <point x="624" y="895" type="line"/>
    </contour>
  </outline>
</glyph>
<glyph name="Hcircumflex" format="1">
  <advance width="1130"/>
  <unicode hex="0124"/>
  <outline>
    <contour>
      <point x="122" y="0" type="line"/>
      <point x="482" y="0" type="line"/>
      <point x="482" y="781" type="line"/>
      <point x="648" y="781" type="line"/>
      <point x="648" y="0" type="line"/>
      <point x="1008" y="0" type="line"/>
      <point x="1008" y="1761" type="line"/>
      <point x="648" y="1761" type="line"/>
      <point x="648" y="1083" type="line"/>
      <point x="482" y="1083" type="line"/>
      <point x="482" y="1761" type="line"/>
      <point x="122" y="1761" type="line"/>
    </contour>
    <contour>
      <point x="120" y="1944" type="line"/>
      <point x="479" y="1944" type="line"/>
      <point x="565" y="2229" type="line"/>
      <point x="651" y="1944" type="line"/>
      <point x="1010" y="1944" type="line"/>
      <point x="769" y="2347" type="line"/>
      <point x="361" y="2347" type="line"/>
    </contour>
  </outline>
</glyph>
<glyph name="Imacron" format="1">
  <advance width="616"/>
  <unicode hex="012A"/>
  <outline>
    <contour>
      <point x="128" y="0" type="line"/>
      <point x="488" y="0" type="line"/>
      <point x="488" y="1761" type="line"/>
      <point x="128" y="1761" type="line"/>
    </contour>
    <contour>
      <point x="50" y="1944" type="line"/>
      <point x="566" y="1944" type="line"/>
      <point x="566" y="2176" type="line"/>
      <point x="50" y="2176" type="line"/>
    </contour>
  </outline>
</glyph>
<glyph name="ibreve" format="1">
  <advance width="586"/>
  <unicode hex="012D"/>
  <outline>
    <contour>
      <point x="291" y="1681" type="curve" smooth="yes"/>
      <point x="531" y="1681"/>
      <point x="646" y="1778"/>
      <point x="646" y="2001" type="curve" smooth="yes"/>
      <point x="646" y="2014" type="line"/>
      <point x="428" y="2014" type="line"/>
      <point x="428" y="1889"/>
      <point x="376" y="1871"/>
      <point x="293" y="1871" type="curve" smooth="yes"/>
      <point x="210" y="1871"/>
      <point x="158" y="1889"/>
      <point x="158" y="2014" type="curve"/>
      <point x="-60" y="2014" type="line"/>
      <point x="-60" y="1999" type="line" smooth="yes"/>
      <point x="-60" y="1782"/>
      <point x="57" y="1681"/>
    </contour>
    <contour>
      <point x="115" y="0" type="line"/>
      <point x="471" y="0" type="line"/>
      <point x="471" y="1500" type="line"/>
      <point x="115" y="1500" type="line"/>
    </contour>
  </outline>
</glyph>
<glyph name="dotlessi" format="1">
  <advance width="586"/>
  <unicode hex="0131"/>
  <outline>
    <contour>
      <point x="115" y="0" type="line"/>
      <point x="471" y="0" type="line"/>
      <point x="471" y="1500" type="line"/>
      <point x="115" y="1500" type="line"/>
    </contour>
    <contour>
      <point x="293" y="0" type="move" name="top"/>
    </contour>
    <contour>
      <point x="527" y="10" type="move" name="ogonek"/>
    </contour>
  </outline>
</glyph>
<glyph name="ij" format="1">
  <advance width="1196"/>
  <unicode hex="0133"/>
  <outline>
    <contour>
      <point x="809" y="-176" type="curve" smooth="yes"/>
      <point x="1015" y="-176"/>
      <point x="1091" y="-47"/>
      <point x="1091" y="166" type="curve" smooth="yes"/>
      <point x="1091" y="1500" type="line"/>
      <point x="735" y="1500" type="line"/>
      <point x="735" y="156" type="line" smooth="yes"/>
      <point x="735" y="119"/>
      <point x="715" y="89"/>
      <point x="652" y="89" type="curve" smooth="yes"/>
      <point x="645" y="89"/>
      <point x="636" y="89"/>
      <point x="627" y="90" type="curve"/>
      <point x="627" y="-150" type="line"/>
      <point x="652" y="-167"/>
      <point x="732" y="-176"/>
    </contour>
    <contour>
      <point x="115" y="0" type="line"/>
      <point x="471" y="0" type="line"/>
      <point x="471" y="1500" type="line"/>
      <point x="115" y="1500" type="line"/>
    </contour>
    <contour>
      <point x="115" y="1600" type="line"/>
      <point x="471" y="1600" type="line"/>
      <point x="471" y="1800" type="line"/>
      <point x="115" y="1800" type="line"/>
    </contour>
    <contour>
      <point x="735" y="1600" type="line"/>
      <point x="1091" y="1600" type="line"/>
      <point x="1091" y="1800" type="line"/>
      <point x="735" y="1800" type="line"/>
    </contour>
  </outline>
</glyph>
<glyph name="jcircumflex" format="1">
  <advance width="610"/>
  <unicode hex="0135"/>
  <outline>
    <contour>
      <point x="223" y="-176" type="curve" smooth="yes"/>
      <point x="429" y="-176"/>
      <point x="505" y="-47"/>
      <point x="505" y="166" type="curve" smooth="yes"/>
      <point x="505" y="1500" type="line"/>
      <point x="149" y="1500" type="line"/>
      <point x="149" y="156" type="line" smooth="yes"/>
      <point x="149" y="119"/>
      <point x="129" y="89"/>
      <point x="66" y="89" type="curve" smooth="yes"/>
      <point x="59" y="89"/>
      <point x="50" y="89"/>
      <point x="41" y="90" type="curve"/>
      <point x="41" y="-150" type="line"/>
      <point x="66" y="-167"/>
      <point x="146" y="-176"/>
    </contour>
    <contour>
      <point x="-172" y="1681" type="line"/>
      <point x="187" y="1681" type="line"/>
      <point x="273" y="1966" type="line"/>
      <point x="359" y="1681" type="line"/>
      <point x="718" y="1681" type="line"/>
      <point x="477" y="2084" type="line"/>
      <point x="69" y="2084" type="line"/>
    </contour>
  </outline>
</glyph>
<glyph name="kcommaaccent" format="1">
  <advance width="1064"/>
  <unicode hex="0137"/>
  <outline>
    <contour>
      <point x="112" y="0" type="line"/>
      <point x="468" y="0" type="line"/>
      <point x="468" y="673" type="line"/>
      <point x="686" y="0" type="line"/>
      <point x="1044" y="0" type="line"/>
      <point x="780" y="767" type="line"/>
      <point x="1028" y="1500" type="line"/>
      <point x="666" y="1500" type="line"/>
      <point x="468" y="879" type="line"/>
      <point x="468" y="1769" type="line"/>
      <point x="112" y="1769" type="line"/>
    </contour>
    <contour>
      <point x="475" y="-809" type="line"/>
      <point x="643" y="-809" type="line"/>
      <point x="745" y="-472" type="line"/>
      <point x="745" y="-163" type="line"/>
      <point x="414" y="-163" type="line"/>
      <point x="414" y="-481" type="line"/>
      <point x="541" y="-481" type="line"/>
    </contour>
  </outline>
</glyph>
<glyph name="Lcommaaccent" format="1">
  <advance width="864"/>
  <unicode hex="013B"/>
  <outline>
    <contour>
      <point x="374.5" y="-809" type="line"/>
      <point x="542.5" y="-809" type="line"/>
      <point x="644.5" y="-472" type="line"/>
      <point x="644.5" y="-163" type="line"/>
      <point x="313.5" y="-163" type="line"/>
      <point x="313.5" y="-481" type="line"/>
      <point x="440.5" y="-481" type="line"/>
    </contour>
    <contour>
      <point x="122.0" y="0" type="line"/>
      <point x="836.0" y="0" type="line"/>
      <point x="836.0" y="318" type="line"/>
      <point x="474.0" y="318" type="line"/>
      <point x="474.0" y="1761" type="line"/>
      <point x="122.0" y="1761" type="line"/>
    </contour>
  </outline>
</glyph>
<glyph name="lcaron" format="1">
  <advance width="594"/>
  <unicode hex="013E"/>
  <outline>
    <contour>
      <point x="784.5" y="1123" type="line"/>
      <point x="952.5" y="1123" type="line"/>
      <point x="1054.5" y="1460" type="line"/>
      <point x="1054.5" y="1769" type="line"/>
      <point x="723.5" y="1769" type="line"/>
      <point x="723.5" y="1451" type="line"/>
      <point x="850.5" y="1451" type="line"/>
    </contour>
    <contour>
      <point x="115.0" y="0" type="line"/>
      <point x="479.0" y="0" type="line"/>
      <point x="479.0" y="1769" type="line"/>
      <point x="115.0" y="1769" type="line"/>
    </contour>
  </outline>
</glyph>
<glyph name="Lslash" format="1">
  <advance width="864"/>
  <unicode hex="0141"/>
  <outline>
    <contour>
      <point x="122" y="0" type="line"/>
      <point x="836" y="0" type="line"/>
      <point x="836" y="318" type="line"/>
      <point x="474" y="318" type="line"/>
      <point x="474" y="843" type="line"/>
      <point x="706" y="923" type="line"/>
      <point x="706" y="1155" type="line"/>
      <point x="474" y="1075" type="line"/>
      <point x="474" y="1761" type="line"/>
      <point x="122" y="1761" type="line"/>
      <point x="122" y="956" type="line"/>
      <point x="-1" y="916" type="line"/>
      <point x="-1" y="684" type="line"/>
      <point x="122" y="724" type="line"/>
    </contour>
  </outline>
</glyph>
<glyph name="nacute" format="1">
  <advance width="1099"/>
  <unicode hex="0144"/>
  <outline>
    <contour>
      <point x="112" y="0" type="line"/>
      <point x="468" y="0" type="line"/>
      <point x="468" y="1055" type="line" smooth="yes"/>
      <point x="468" y="1138"/>
      <point x="475" y="1239"/>
      <point x="558" y="1239" type="curve" smooth="yes"/>
      <point x="616" y="1239"/>
      <point x="638" y="1179"/>
      <point x="638" y="1120" type="curve" smooth="yes"/>
      <point x="638" y="0" type="line"/>
      <point x="994" y="0" type="line"/>
      <point x="994" y="1157" type="line" smooth="yes"/>
      <point x="994" y="1379"/>
      <point x="912" y="1518"/>
      <point x="704" y="1518" type="curve" smooth="yes"/>
      <point x="575" y="1518"/>
      <point x="494" y="1423"/>
      <point x="468" y="1309" type="curve"/>
      <point x="468" y="1500" type="line"/>
      <point x="112" y="1500" type="line"/>
    </contour>
    <contour>
      <point x="315.5" y="1681" type="line"/>
      <point x="790.5" y="1775" type="line"/>
      <point x="790.5" y="2122" type="line"/>
      <point x="315.5" y="1904" type="line"/>
    </contour>
  </outline>
</glyph>
<glyph name="Ncaron" format="1">
  <advance width="1144"/>
  <unicode hex="0147"/>
  <outline>
    <contour>
      <point x="776" y="1944" type="line"/>
      <point x="1017" y="2347" type="line"/>
      <point x="658" y="2347" type="line"/>
      <point x="572" y="2062" type="line"/>
      <point x="486" y="2347" type="line"/>
      <point x="127" y="2347" type="line"/>
      <point x="368" y="1944" type="line"/>
    </contour>
    <contour>
      <point x="692" y="947" type="line"/>
      <point x="444" y="1761" type="line"/>
      <point x="122" y="1761" type="line"/>
      <point x="122" y="0" type="line"/>
      <point x="452" y="0" type="line"/>
      <point x="452" y="860" type="line"/>
      <point x="714" y="0" type="line"/>
      <point x="1022" y="0" type="line"/>
      <point x="1022" y="1761" type="line"/>
      <point x="692" y="1761" type="line"/>
    </contour>
  </outline>
</glyph>
<glyph name="ohungarumlaut" format="1">
  <advance width="1076"/>
  <unicode hex="0151"/>
  <outline>
    <contour>
      <point x="739" y="1681" type="line"/>
      <point x="1079" y="2111" type="line"/>
      <point x="834" y="2222" type="line"/>
      <point x="593" y="1743" type="line"/>
    </contour>
    <contour>
      <point x="337" y="1681" type="line"/>
      <point x="616" y="2111" type="line"/>
      <point x="375" y="2222" type="line"/>
      <point x="191" y="1743" type="line"/>
    </contour>
    <contour>
      <point x="538" y="260" type="curve" smooth="yes"/>
      <point x="478" y="260"/>
      <point x="454" y="308"/>
      <point x="454" y="375" type="curve" smooth="yes"/>
      <point x="454" y="1108" type="line" smooth="yes"/>
      <point x="454" y="1195"/>
      <point x="482" y="1239"/>
      <point x="538" y="1239" type="curve" smooth="yes"/>
      <point x="594" y="1239"/>
      <point x="622" y="1195"/>
      <point x="622" y="1108" type="curve" smooth="yes"/>
      <point x="622" y="375" type="line" smooth="yes"/>
      <point x="622" y="308"/>
      <point x="598" y="260"/>
    </contour>
    <contour>
      <point x="978" y="1051" type="line" smooth="yes"/>
      <point x="978" y="1334"/>
      <point x="819" y="1518"/>
      <point x="538" y="1518" type="curve" smooth="yes"/>
      <point x="258" y="1518"/>
      <point x="98" y="1333"/>
      <point x="98" y="1051" type="curve" smooth="yes"/>
      <point x="98" y="449" type="line" smooth="yes"/>
      <point x="98" y="138"/>
      <point x="239" y="-18"/>
      <point x="538" y="-18" type="curve" smooth="yes"/>
      <point x="839" y="-18"/>
      <point x="978" y="143"/>
      <point x="978" y="449" type="curve" smooth="yes"/>
    </contour>
  </outline>
</glyph>
<glyph name="rcommaaccent" format="1">
  <advance width="759"/>
  <unicode hex="0157"/>
  <outline>
    <contour>
      <point x="112" y="0" type="line"/>
      <point x="470" y="0" type="line"/>
      <point x="470" y="1147" type="line" smooth="yes"/>
      <point x="470" y="1187"/>
      <point x="640" y="1219"/>
      <point x="728" y="1219" type="curve"/>
      <point x="728" y="1219"/>
      <point x="730" y="1518"/>
      <point x="725" y="1518" type="curve" smooth="yes"/>
      <point x="592" y="1518"/>
      <point x="504" y="1449"/>
      <point x="470" y="1333" type="curve"/>
      <point x="470" y="1500" type="line"/>
      <point x="112" y="1500" type="line"/>
    </contour>
    <contour>
      <point x="315.698" y="-809" type="line"/>
      <point x="483.698" y="-809" type="line"/>
      <point x="585.698" y="-472" type="line"/>
      <point x="585.698" y="-163" type="line"/>
      <point x="254.698" y="-163" type="line"/>
      <point x="254.698" y="-481" type="line"/>
      <point x="381.698" y="-481" type="line"/>
    </contour>
  </outline>
</glyph>
<glyph name="rcaron" format="1">
  <advance width="759"/>
  <unicode hex="0159"/>
  <outline>
    <contour>
      <point x="112.0" y="0" type="line"/>
      <point x="470.0" y="0" type="line"/>
      <point x="470.0" y="1147" type="line" smooth="yes"/>
      <point x="470.0" y="1187"/>
      <point x="640.0" y="1219"/>
      <point x="728.0" y="1219" type="curve"/>
      <point x="728.0" y="1219"/>
      <point x="730.0" y="1518"/>
      <point x="725.0" y="1518" type="curve" smooth="yes"/>
      <point x="592.0" y="1518"/>
      <point x="504.0" y="1449"/>
      <point x="470.0" y="1333" type="curve"/>
      <point x="470.0" y="1500" type="line"/>
      <point x="112.0" y="1500" type="line"/>
    </contour>
    <contour>
      <point x="216.197265625" y="1681" type="line"/>
      <point x="624.197265625" y="1681" type="line"/>
      <point x="865.197265625" y="2084" type="line"/>
      <point x="506.197265625" y="2084" type="line"/>
      <point x="420.197265625" y="1799" type="line"/>
      <point x="334.197265625" y="2084" type="line"/>
      <point x="-24.802734375" y="2084" type="line"/>
    </contour>
  </outline>
</glyph>
<glyph name="utilde" format="1">
  <advance width="1099"/>
  <unicode hex="0169"/>
  <outline>
    <contour>
      <point x="105" y="143"/>
      <point x="157" y="-18"/>
      <point x="398" y="-18" type="curve" smooth="yes"/>
      <point x="534" y="-18"/>
      <point x="583" y="45"/>
      <point x="629" y="160" type="curve"/>
      <point x="629" y="0" type="line"/>
      <point x="987" y="0" type="line"/>
      <point x="987" y="1500" type="line"/>
      <point x="631" y="1500" type="line"/>
      <point x="629" y="443" type="line"/>
      <point x="629" y="360"/>
      <point x="628" y="264"/>
      <point x="545" y="264" type="curve" smooth="yes"/>
      <point x="457" y="264"/>
      <point x="465" y="342"/>
      <point x="465" y="455" type="curve" smooth="yes"/>
      <point x="465" y="1500" type="line"/>
      <point x="105" y="1500" type="line"/>
      <point x="105" y="383" type="line" smooth="yes"/>
    </contour>
    <contour>
      <point x="493.5" y="1763"/>
      <point x="621.5" y="1681"/>
      <point x="709.5" y="1681" type="curve" smooth="yes"/>
      <point x="817.5" y="1681"/>
      <point x="885.5" y="1738"/>
      <point x="905.5" y="1881" type="curve" smooth="yes"/>
      <point x="914.5" y="1946" type="line"/>
      <point x="743.5" y="1974" type="line"/>
      <point x="722.5" y="1914"/>
      <point x="706.5" y="1906"/>
      <point x="687.5" y="1903" type="curve"/>
      <point x="683.5" y="1903" type="line" smooth="yes"/>
      <point x="633.5" y="1903"/>
      <point x="470.5" y="1977"/>
      <point x="389.5" y="1977" type="curve" smooth="yes"/>
      <point x="281.5" y="1977"/>
      <point x="216.5" y="1894"/>
      <point x="177.5" y="1759" type="curve"/>
      <point x="336.5" y="1702" type="line"/>
      <point x="354.5" y="1737"/>
      <point x="365.5" y="1756"/>
      <point x="387.5" y="1761" type="curve"/>
      <point x="394.5" y="1763"/>
      <point x="402.5" y="1763"/>
      <point x="410.5" y="1763" type="curve" smooth="yes"/>
    </contour>
  </outline>
</glyph>
<glyph name="wcircumflex" format="1">
  <advance width="1449"/>
  <unicode hex="0175"/>
  <outline>
    <contour>
      <point x="265.0" y="0" type="line"/>
      <point x="621.0" y="0" type="line"/>
      <point x="725.0" y="911" type="line"/>
      <point x="833.0" y="0" type="line"/>
      <point x="1189.0" y="0" type="line"/>
      <point x="1393.0" y="1500" type="line"/>
      <point x="1083.0" y="1500" type="line"/>
      <point x="985.0" y="570" type="line"/>
      <point x="869.0" y="1500" type="line"/>
      <point x="562.0" y="1500" type="line"/>
      <point x="477.0" y="570" type="line"/>
      <point x="369.0" y="1500" type="line"/>
      <point x="56.0" y="1500" type="line"/>
    </contour>
    <contour>
      <point x="279.5" y="1681" type="line"/>
      <point x="638.5" y="1681" type="line"/>
      <point x="724.5" y="1966" type="line"/>
      <point x="810.5" y="1681" type="line"/>
      <point x="1169.5" y="1681" type="line"/>
      <point x="928.5" y="2084" type="line"/>
      <point x="520.5" y="2084" type="line"/>
    </contour>
  </outline>
</glyph>
<glyph name="ycircumflex" format="1">
  <advance width="952"/>
  <unicode hex="0177"/>
  <outline>
    <contour>
      <point x="686" y="2084" type="line"/>
      <point x="278" y="2084" type="line"/>
      <point x="37" y="1681" type="line"/>
      <point x="396" y="1681" type="line"/>
      <point x="482" y="1966" type="line"/>
      <point x="568" y="1681" type="line"/>
      <point x="927" y="1681" type="line"/>
    </contour>
    <contour>
      <point x="56" y="-250" type="line"/>
      <point x="460" y="-250" type="line" smooth="yes"/>
      <point x="589" y="-250"/>
      <point x="641" y="-192"/>
      <point x="657" y="-78" type="curve" smooth="yes"/>
      <point x="935" y="1501" type="line"/>
      <point x="594" y="1501" type="line"/>
      <point x="522" y="815" type="line"/>
      <point x="495" y="483" type="line"/>
      <point x="480" y="483" type="line"/>
      <point x="448" y="815" type="line"/>
      <point x="374" y="1501" type="line"/>
      <point x="29" y="1501" type="line"/>
      <point x="260" y="91" type="line" smooth="yes"/>
      <point x="263" y="69"/>
      <point x="265" y="52"/>
      <point x="265" y="39" type="curve" smooth="yes"/>
      <point x="265" y="-15"/>
      <point x="230" y="-23"/>
      <point x="168" y="-23" type="curve" smooth="yes"/>
      <point x="56" y="-23" type="line"/>
    </contour>
  </outline>
</glyph>
<glyph name="Ydieresis" format="1">
  <advance width="931"/>
  <unicode hex="0178"/>
  <outline>
    <contour>
      <point x="528.5" y="1944" type="line"/>
      <point x="886.5" y="1944" type="line"/>
      <point x="886.5" y="2242" type="line"/>
      <point x="528.5" y="2242" type="line"/>
    </contour>
    <contour>
      <point x="44.5" y="1944" type="line"/>
      <point x="402.5" y="1944" type="line"/>
      <point x="402.5" y="2242" type="line"/>
      <point x="44.5" y="2242" type="line"/>
    </contour>
    <contour>
      <point x="912.0" y="1761" type="line"/>
      <point x="589.0" y="1761" type="line"/>
      <point x="474.0" y="1156" type="line"/>
      <point x="469.0" y="1156" type="line"/>
      <point x="346.0" y="1761" type="line"/>
      <point x="19.0" y="1761" type="line"/>
      <point x="300.0" y="649" type="line"/>
      <point x="300.0" y="0" type="line"/>
      <point x="632.0" y="0" type="line"/>
      <point x="632.0" y="649" type="line"/>
    </contour>
  </outline>
</glyph>
<glyph name="zacute" format="1">
  <advance width="821"/>
  <unicode hex="017A"/>
  <outline>
    <contour>
      <point x="179.5" y="1681" type="line"/>
      <point x="654.5" y="1775" type="line"/>
      <point x="654.5" y="2122" type="line"/>
      <point x="179.5" y="1904" type="line"/>
    </contour>
    <contour>
      <point x="745.0" y="294" type="line"/>
      <point x="431.0" y="294" type="line"/>
      <point x="759.0" y="1233" type="line"/>
      <point x="759.0" y="1500" type="line"/>
      <point x="100.0" y="1500" type="line"/>
      <point x="100.0" y="1197" type="line"/>
      <point x="405.0" y="1197" type="line"/>
      <point x="75.0" y="272" type="line"/>
      <point x="75.0" y="0" type="line"/>
      <point x="745.0" y="0" type="line"/>
    </contour>
  </outline>
</glyph>
<glyph name="uni01C8" format="1">
  <advance width="1474"/>
  <unicode hex="01C8"/>
  <outline>
    <contour>
      <point x="1087" y="-176" type="curve" smooth="yes"/>
      <point x="1293" y="-176"/>
      <point x="1369" y="-47"/>
      <point x="1369" y="166" type="curve" smooth="yes"/>
      <point x="1369" y="1500" type="line"/>
      <point x="1013" y="1500" type="line"/>
      <point x="1013" y="156" type="line" smooth="yes"/>
      <point x="1013" y="119"/>
      <point x="993" y="89"/>
      <point x="930" y="89" type="curve" smooth="yes"/>
      <point x="923" y="89"/>
      <point x="914" y="89"/>
      <point x="905" y="90" type="curve"/>
      <point x="905" y="-150" type="line"/>
      <point x="930" y="-167"/>
      <point x="1010" y="-176"/>
    </contour>
    <contour>
      <point x="122" y="0" type="line"/>
      <point x="836" y="0" type="line"/>
      <point x="836" y="318" type="line"/>
      <point x="474" y="318" type="line"/>
      <point x="474" y="1761" type="line"/>
      <point x="122" y="1761" type="line"/>
    </contour>
    <contour>
      <point x="1013" y="1600" type="line"/>
      <point x="1369" y="1600" type="line"/>
      <point x="1369" y="1800" type="line"/>
      <point x="1013" y="1800" type="line"/>
    </contour>
  </outline>
</glyph>
<glyph name="uni01C9" format="1">
  <advance width="1204"/>
  <unicode hex="01C9"/>
  <outline>
    <contour>
      <point x="817" y="-176" type="curve" smooth="yes"/>
      <point x="1023" y="-176"/>
      <point x="1099" y="-47"/>
      <point x="1099" y="166" type="curve" smooth="yes"/>
      <point x="1099" y="1500" type="line"/>
      <point x="743" y="1500" type="line"/>
      <point x="743" y="156" type="line" smooth="yes"/>
      <point x="743" y="119"/>
      <point x="723" y="89"/>
      <point x="660" y="89" type="curve" smooth="yes"/>
      <point x="653" y="89"/>
      <point x="644" y="89"/>
      <point x="635" y="90" type="curve"/>
      <point x="635" y="-150" type="line"/>
      <point x="660" y="-167"/>
      <point x="740" y="-176"/>
    </contour>
    <contour>
      <point x="115" y="0" type="line"/>
      <point x="479" y="0" type="line"/>
      <point x="479" y="1769" type="line"/>
      <point x="115" y="1769" type="line"/>
    </contour>
    <contour>
      <point x="743" y="1600" type="line"/>
      <point x="1099" y="1600" type="line"/>
      <point x="1099" y="1800" type="line"/>
      <point x="743" y="1800" type="line"/>
    </contour>
  </outline>
</glyph>
<glyph name="uni01CB" format="1">
  <advance width="1754"/>
  <unicode hex="01CB"/>
  <outline>
    <contour>
      <point x="122" y="0" type="line"/>
      <point x="452" y="0" type="line"/>
      <point x="452" y="860" type="line"/>
      <point x="714" y="0" type="line"/>
      <point x="1022" y="0" type="line"/>
      <point x="1022" y="1761" type="line"/>
      <point x="692" y="1761" type="line"/>
      <point x="692" y="947" type="line"/>
      <point x="444" y="1761" type="line"/>
      <point x="122" y="1761" type="line"/>
    </contour>
    <contour>
      <point x="1367" y="-176" type="curve" smooth="yes"/>
      <point x="1573" y="-176"/>
      <point x="1649" y="-47"/>
      <point x="1649" y="166" type="curve" smooth="yes"/>
      <point x="1649" y="1500" type="line"/>
      <point x="1293" y="1500" type="line"/>
      <point x="1293" y="156" type="line" smooth="yes"/>
      <point x="1293" y="119"/>
      <point x="1273" y="89"/>
      <point x="1210" y="89" type="curve" smooth="yes"/>
      <point x="1203" y="89"/>
      <point x="1194" y="89"/>
      <point x="1185" y="90" type="curve"/>
      <point x="1185" y="-150" type="line"/>
      <point x="1210" y="-167"/>
      <point x="1290" y="-176"/>
    </contour>
    <contour>
      <point x="1293" y="1600" type="line"/>
      <point x="1649" y="1600" type="line"/>
      <point x="1649" y="1800" type="line"/>
      <point x="1293" y="1800" type="line"/>
    </contour>
  </outline>
</glyph>
<glyph name="uni0202" format="1">
  <advance width="1103"/>
  <unicode hex="0202"/>
  <outline>
    <contour>
      <point x="68" y="0" type="line"/>
      <point x="430" y="0" type="line"/>
      <point x="452" y="281" type="line"/>
      <point x="664" y="281" type="line"/>
      <point x="689" y="0" type="line"/>
      <point x="1035" y="0" type="line"/>
      <point x="825" y="1761" type="line"/>
      <point x="274" y="1761" type="line"/>
    </contour>
    <contour>
      <point x="198.5" y="1944" type="line"/>
      <point x="416.5" y="1944" type="line"/>
      <point x="416.5" y="2069"/>
      <point x="468.5" y="2087"/>
      <point x="551.5" y="2087" type="curve" smooth="yes"/>
      <point x="634.5" y="2087"/>
      <point x="686.5" y="2069"/>
      <point x="686.5" y="1944" type="curve"/>
      <point x="904.5" y="1944" type="line"/>
      <point x="904.5" y="1959" type="line" smooth="yes"/>
      <point x="904.5" y="2176"/>
      <point x="787.5" y="2277"/>
      <point x="553.5" y="2277" type="curve" smooth="yes"/>
      <point x="313.5" y="2277"/>
      <point x="198.5" y="2180"/>
      <point x="198.5" y="1957" type="curve" smooth="yes"/>
    </contour>
    <contour>
      <point x="477" y="565" type="line"/>
      <point x="550" y="1481" type="line"/>
      <point x="557" y="1481" type="line"/>
      <point x="637" y="565" type="line"/>
    </contour>
  </outline>
</glyph>
<glyph name="uni0209" format="1">
  <advance width="586"/>
  <unicode hex="0209"/>
  <outline>
    <contour>
      <point x="168.5" y="1681" type="line"/>
      <point x="334.5" y="1739" type="line"/>
      <point x="113.5" y="2218" type="line"/>
      <point x="-120.5" y="2110" type="line"/>
    </contour>
    <contour>
      <point x="115" y="0" type="line"/>
      <point x="471" y="0" type="line"/>
      <point x="471" y="1500" type="line"/>
      <point x="115" y="1500" type="line"/>
    </contour>
    <contour>
      <point x="540.5" y="1681" type="line"/>
      <point x="706.5" y="1739" type="line"/>
      <point x="522.5" y="2218" type="line"/>
      <point x="292.5" y="2110" type="line"/>
    </contour>
  </outline>
</glyph>
<glyph name="uni020B" format="1">
  <advance width="586"/>
  <unicode hex="020B"/>
  <outline>
    <contour>
      <point x="293" y="1824" type="curve" smooth="yes"/>
      <point x="376" y="1824"/>
      <point x="428" y="1806"/>
      <point x="428" y="1681" type="curve"/>
      <point x="646" y="1681" type="line"/>
      <point x="646" y="1696" type="line" smooth="yes"/>
      <point x="646" y="1913"/>
      <point x="529" y="2014"/>
      <point x="295" y="2014" type="curve" smooth="yes"/>
      <point x="55" y="2014"/>
      <point x="-60" y="1917"/>
      <point x="-60" y="1694" type="curve" smooth="yes"/>
      <point x="-60" y="1681" type="line"/>
      <point x="158" y="1681" type="line"/>
      <point x="158" y="1806"/>
      <point x="210" y="1824"/>
    </contour>
    <contour>
      <point x="471" y="1500" type="line"/>
      <point x="115" y="1500" type="line"/>
      <point x="115" y="0" type="line"/>
      <point x="471" y="0" type="line"/>
    </contour>
  </outline>
</glyph>
<glyph name="uni0213" format="1">
  <advance width="759"/>
  <unicode hex="0213"/>
  <outline>
    <contour>
      <point x="112" y="0" type="line"/>
      <point x="470" y="0" type="line"/>
      <point x="470" y="1147" type="line" smooth="yes"/>
      <point x="470" y="1187"/>
      <point x="640" y="1219"/>
      <point x="728" y="1219" type="curve"/>
      <point x="728" y="1219"/>
      <point x="730" y="1518"/>
      <point x="725" y="1518" type="curve" smooth="yes"/>
      <point x="592" y="1518"/>
      <point x="504" y="1449"/>
      <point x="470" y="1333" type="curve"/>
      <point x="470" y="1500" type="line"/>
      <point x="112" y="1500" type="line"/>
    </contour>
    <contour>
      <point x="67.1973" y="1681" type="line"/>
      <point x="285.197" y="1681" type="line"/>
      <point x="285.197" y="1806"/>
      <point x="337.197" y="1824"/>
      <point x="420.197" y="1824" type="curve" smooth="yes"/>
      <point x="503.197" y="1824"/>
      <point x="555.197" y="1806"/>
      <point x="555.197" y="1681" type="curve"/>
      <point x="773.197" y="1681" type="line"/>
      <point x="773.197" y="1696" type="line" smooth="yes"/>
      <point x="773.197" y="1913"/>
      <point x="656.197" y="2014"/>
      <point x="422.197" y="2014" type="curve" smooth="yes"/>
      <point x="182.197" y="2014"/>
      <point x="67.1973" y="1917"/>
      <point x="67.1973" y="1694" type="curve" smooth="yes"/>
    </contour>
  </outline>
</glyph>
<glyph name="uni0215" format="1">
  <advance width="1099"/>
  <unicode hex="0215"/>
  <outline>
    <contour>
      <point x="105" y="143"/>
      <point x="157" y="-18"/>
      <point x="398" y="-18" type="curve" smooth="yes"/>
      <point x="534" y="-18"/>
      <point x="583" y="45"/>
      <point x="629" y="160" type="curve"/>
      <point x="629" y="0" type="line"/>
      <point x="987" y="0" type="line"/>
      <point x="987" y="1500" type="line"/>
      <point x="631" y="1500" type="line"/>
      <point x="629" y="443" type="line"/>
      <point x="629" y="360"/>
      <point x="628" y="264"/>
      <point x="545" y="264" type="curve" smooth="yes"/>
      <point x="457" y="264"/>
      <point x="465" y="342"/>
      <point x="465" y="455" type="curve" smooth="yes"/>
      <point x="465" y="1500" type="line"/>
      <point x="105" y="1500" type="line"/>
      <point x="105" y="383" type="line" smooth="yes"/>
    </contour>
    <contour>
      <point x="421.5" y="1681" type="line"/>
      <point x="587.5" y="1739" type="line"/>
      <point x="366.5" y="2218" type="line"/>
      <point x="132.5" y="2110" type="line"/>
    </contour>
    <contour>
      <point x="793.5" y="1681" type="line"/>
      <point x="959.5" y="1739" type="line"/>
      <point x="775.5" y="2218" type="line"/>
      <point x="545.5" y="2110" type="line"/>
    </contour>
  </outline>
</glyph>
<glyph name="uni0216" format="1">
  <advance width="1110"/>
  <unicode hex="0216"/>
  <outline>
    <contour>
      <point x="555" y="2087" type="curve" smooth="yes"/>
      <point x="638" y="2087"/>
      <point x="690" y="2069"/>
      <point x="690" y="1944" type="curve"/>
      <point x="908" y="1944" type="line"/>
      <point x="908" y="1959" type="line" smooth="yes"/>
      <point x="908" y="2176"/>
      <point x="791" y="2277"/>
      <point x="557" y="2277" type="curve" smooth="yes"/>
      <point x="317" y="2277"/>
      <point x="202" y="2180"/>
      <point x="202" y="1957" type="curve" smooth="yes"/>
      <point x="202" y="1944" type="line"/>
      <point x="420" y="1944" type="line"/>
      <point x="420" y="2069"/>
      <point x="472" y="2087"/>
    </contour>
    <contour>
      <point x="556" y="-21" type="curve" smooth="yes"/>
      <point x="849" y="-21"/>
      <point x="1000" y="132"/>
      <point x="1000" y="452" type="curve" smooth="yes"/>
      <point x="1000" y="1761" type="line"/>
      <point x="640" y="1761" type="line"/>
      <point x="640" y="457" type="line" smooth="yes"/>
      <point x="640" y="368"/>
      <point x="635" y="294"/>
      <point x="554" y="294" type="curve" smooth="yes"/>
      <point x="474" y="294"/>
      <point x="470" y="369"/>
      <point x="470" y="457" type="curve" smooth="yes"/>
      <point x="470" y="1761" type="line"/>
      <point x="110" y="1761" type="line"/>
      <point x="110" y="452" type="line" smooth="yes"/>
      <point x="110" y="132"/>
      <point x="263" y="-21"/>
    </contour>
  </outline>
</glyph>
<glyph name="ring" format="1">
  <advance width="923"/>
  <unicode hex="02DA"/>
  <outline>
    <contour>
      <point x="462.269256592" y="297.907012939" type="line"/>
      <point x="552.233581543" y="297.907012939"/>
      <point x="597.426239014" y="374.038345337"/>
      <point x="597.426239014" y="450.127227783" type="curve" smooth="yes"/>
      <point x="597.426239014" y="526.131286621"/>
      <point x="552.334274292" y="602.092987061"/>
      <point x="461.730712891" y="602.092987061" type="curve" smooth="yes"/>
      <point x="371.766387939" y="602.092987061"/>
      <point x="326.573730469" y="525.961654663"/>
      <point x="326.573730469" y="449.872772217" type="curve" smooth="yes"/>
      <point x="326.573730469" y="373.868713379"/>
      <point x="371.66569519" y="297.907012939"/>
      <point x="462.269271851" y="297.907012939" type="curve"/>
    </contour>
    <contour>
      <point x="461" y="170" type="curve" smooth="yes"/>
      <point x="632" y="170"/>
      <point x="744" y="281"/>
      <point x="744" y="450" type="curve" smooth="yes"/>
      <point x="744" y="619"/>
      <point x="632" y="730"/>
      <point x="461" y="730" type="curve" smooth="yes"/>
      <point x="290" y="730"/>
      <point x="179" y="619"/>
      <point x="179" y="450" type="curve" smooth="yes"/>
      <point x="179" y="280"/>
      <point x="290" y="170"/>
    </contour>
  </outline>
</glyph>
<glyph name="hungarumlaut" format="1">
  <advance width="1300"/>
  <unicode hex="02DD"/>
  <outline>
    <contour>
      <point x="363" y="1232" type="line"/>
      <point x="642" y="1662" type="line"/>
      <point x="401" y="1773" type="line"/>
      <point x="217" y="1294" type="line"/>
    </contour>
    <contour>
      <point x="765" y="1232" type="line"/>
      <point x="1105" y="1662" type="line"/>
      <point x="860" y="1773" type="line"/>
      <point x="619" y="1294" type="line"/>
    </contour>
  </outline>
</glyph>
<glyph name="uni0311" format="1">
  <advance width="1016"/>
  <unicode hex="0311"/>
  <outline>
    <contour>
      <point x="155" y="1612" type="line"/>
      <point x="373" y="1612" type="line"/>
      <point x="373" y="1737"/>
      <point x="425" y="1755"/>
      <point x="508" y="1755" type="curve" smooth="yes"/>
      <point x="591" y="1755"/>
      <point x="643" y="1737"/>
      <point x="643" y="1612" type="curve"/>
      <point x="861" y="1612" type="line"/>
      <point x="861" y="1627" type="line" smooth="yes"/>
      <point x="861" y="1844"/>
      <point x="744" y="1945"/>
      <point x="510" y="1945" type="curve" smooth="yes"/>
      <point x="270" y="1945"/>
      <point x="155" y="1848"/>
      <point x="155" y="1625" type="curve" smooth="yes"/>
    </contour>
  </outline>
</glyph>
<glyph name="uni1E1E" format="1">
  <advance width="886"/>
  <unicode hex="1E1E"/>
  <outline>
    <contour>
      <point x="122" y="0" type="line"/>
      <point x="482" y="0" type="line"/>
      <point x="482" y="778" type="line"/>
      <point x="786" y="778" type="line"/>
      <point x="786" y="1101" type="line"/>
      <point x="482" y="1101" type="line"/>
      <point x="482" y="1436" type="line"/>
      <point x="828" y="1436" type="line"/>
      <point x="828" y="1761" type="line"/>
      <point x="122" y="1761" type="line"/>
    </contour>
    <contour>
      <point x="296" y="1944" type="line"/>
      <point x="654" y="1944" type="line"/>
      <point x="654" y="2242" type="line"/>
      <point x="296" y="2242" type="line"/>
    </contour>
  </outline>
</glyph>
<glyph name="uni1E40" format="1">
  <advance width="1616"/>
  <unicode hex="1E40"/>
  <outline>
    <contour>
      <point x="122" y="0" type="line"/>
      <point x="440" y="0" type="line"/>
      <point x="440" y="1268" type="line"/>
      <point x="654" y="0" type="line"/>
      <point x="970" y="0" type="line"/>
      <point x="1172" y="1268" type="line"/>
      <point x="1172" y="0" type="line"/>
      <point x="1494" y="0" type="line"/>
      <point x="1494" y="1761" type="line"/>
      <point x="953" y="1761" type="line"/>
      <point x="806" y="687" type="line"/>
      <point x="658" y="1761" type="line"/>
      <point x="122" y="1761" type="line"/>
    </contour>
    <contour>
      <point x="629" y="1944" type="line"/>
      <point x="987" y="1944" type="line"/>
      <point x="987" y="2242" type="line"/>
      <point x="629" y="2242" type="line"/>
    </contour>
  </outline>
</glyph>
<glyph name="uni1E41" format="1">
  <advance width="1615"/>
  <unicode hex="1E41"/>
  <outline>
    <contour>
      <point x="112" y="0" type="line"/>
      <point x="464" y="0" type="line"/>
      <point x="464" y="1059" type="line" smooth="yes"/>
      <point x="464" y="1140"/>
      <point x="485" y="1243"/>
      <point x="566" y="1243" type="curve" smooth="yes"/>
      <point x="629" y="1243"/>
      <point x="636" y="1165"/>
      <point x="636" y="1102" type="curve" smooth="yes"/>
      <point x="636" y="0" type="line"/>
      <point x="988" y="0" type="line"/>
      <point x="988" y="1077" type="line" smooth="yes"/>
      <point x="988" y="1154"/>
      <point x="1008" y="1247"/>
      <point x="1085" y="1247" type="curve" smooth="yes"/>
      <point x="1134" y="1247"/>
      <point x="1158" y="1199"/>
      <point x="1158" y="1102" type="curve" smooth="yes"/>
      <point x="1158" y="0" type="line"/>
      <point x="1510" y="0" type="line"/>
      <point x="1510" y="1096" type="line" smooth="yes"/>
      <point x="1510" y="1343"/>
      <point x="1455" y="1519"/>
      <point x="1206" y="1519" type="curve" smooth="yes"/>
      <point x="1068" y="1519"/>
      <point x="1010" y="1464"/>
      <point x="955" y="1365" type="curve"/>
      <point x="920" y="1456"/>
      <point x="832" y="1519"/>
      <point x="712" y="1519" type="curve" smooth="yes"/>
      <point x="562" y="1519"/>
      <point x="496" y="1448"/>
      <point x="464" y="1326" type="curve"/>
      <point x="464" y="1500" type="line"/>
      <point x="112" y="1500" type="line"/>
    </contour>
    <contour>
      <point x="632" y="1682" type="line"/>
      <point x="990" y="1682" type="line"/>
      <point x="990" y="1980" type="line"/>
      <point x="632" y="1980" type="line"/>
    </contour>
  </outline>
</glyph>
<glyph name="wgrave" format="1">
  <advance width="1449"/>
  <unicode hex="1E81"/>
  <outline>
    <contour>
      <point x="265" y="0" type="line"/>
      <point x="621" y="0" type="line"/>
      <point x="725" y="911" type="line"/>
      <point x="833" y="0" type="line"/>
      <point x="1189" y="0" type="line"/>
      <point x="1393" y="1500" type="line"/>
      <point x="1083" y="1500" type="line"/>
      <point x="985" y="570" type="line"/>
      <point x="869" y="1500" type="line"/>
      <point x="562" y="1500" type="line"/>
      <point x="477" y="570" type="line"/>
      <point x="369" y="1500" type="line"/>
      <point x="56" y="1500" type="line"/>
    </contour>
    <contour>
      <point x="962" y="1681" type="line"/>
      <point x="962" y="1904" type="line"/>
      <point x="487" y="2122" type="line"/>
      <point x="487" y="1775" type="line"/>
    </contour>
  </outline>
</glyph>
<glyph name="wdieresis" format="1">
  <advance width="1449"/>
  <unicode hex="1E85"/>
  <outline>
    <contour>
      <point x="265" y="0" type="line"/>
      <point x="621" y="0" type="line"/>
      <point x="725" y="911" type="line"/>
      <point x="833" y="0" type="line"/>
      <point x="1189" y="0" type="line"/>
      <point x="1393" y="1500" type="line"/>
      <point x="1083" y="1500" type="line"/>
      <point x="985" y="570" type="line"/>
      <point x="869" y="1500" type="line"/>
      <point x="562" y="1500" type="line"/>
      <point x="477" y="570" type="line"/>
      <point x="369" y="1500" type="line"/>
      <point x="56" y="1500" type="line"/>
    </contour>
    <contour>
      <point x="303.5" y="1681" type="line"/>
      <point x="661.5" y="1681" type="line"/>
      <point x="661.5" y="1979" type="line"/>
      <point x="303.5" y="1979" type="line"/>
    </contour>
    <contour>
      <point x="787.5" y="1681" type="line"/>
      <point x="1145.5" y="1681" type="line"/>
      <point x="1145.5" y="1979" type="line"/>
      <point x="787.5" y="1979" type="line"/>
    </contour>
  </outline>
</glyph>
<glyph name="Ygrave" format="1">
  <advance width="931"/>
  <unicode hex="1EF2"/>
  <outline>
    <contour>
      <point x="703" y="1944" type="line"/>
      <point x="703" y="2167" type="line"/>
      <point x="228" y="2385" type="line"/>
      <point x="228" y="2038" type="line"/>
    </contour>
    <contour>
      <point x="912" y="1761" type="line"/>
      <point x="589" y="1761" type="line"/>
      <point x="474" y="1156" type="line"/>
      <point x="469" y="1156" type="line"/>
      <point x="346" y="1761" type="line"/>
      <point x="19" y="1761" type="line"/>
      <point x="300" y="649" type="line"/>
      <point x="300" y="0" type="line"/>
      <point x="632" y="0" type="line"/>
      <point x="632" y="649" type="line"/>
    </contour>
  </outline>
</glyph>
<glyph name="quoteleft" format="1">
  <advance width="595"/>
  <unicode hex="2018"/>
  <outline>
    <contour>
      <point x="390" y="1782" type="line"/>
      <point x="277" y="1782" type="line"/>
      <point x="159" y="1354" type="line"/>
      <point x="159" y="1148" type="line"/>
      <point x="443" y="1148" type="line"/>
      <point x="443" y="1363" type="line"/>
      <point x="299" y="1363" type="line"/>
    </contour>
  </outline>
</glyph>
<glyph name="quoteright" format="1">
  <advance width="595"/>
  <unicode hex="2019"/>
  <outline>
    <contour>
      <point x="232" y="1148" type="line"/>
      <point x="345" y="1148" type="line"/>
      <point x="463" y="1576" type="line"/>
      <point x="463" y="1782" type="line"/>
      <point x="179" y="1782" type="line"/>
      <point x="179" y="1567" type="line"/>
      <point x="323" y="1567" type="line"/>
    </contour>
  </outline>
</glyph>
<glyph name="quotedblbase" format="1">
  <advance width="1016"/>
  <unicode hex="201E"/>
  <outline>
    <contour>
      <point x="188" y="-330" type="line"/>
      <point x="399" y="-330" type="line"/>
      <point x="501" y="8" type="line"/>
      <point x="501" y="304" type="line"/>
      <point x="127" y="304" type="line"/>
      <point x="127" y="0" type="line"/>
      <point x="254" y="0" type="line"/>
    </contour>
    <contour>
      <point x="669" y="-330" type="line"/>
      <point x="880" y="-330" type="line"/>
      <point x="982" y="8" type="line"/>
      <point x="982" y="304" type="line"/>
      <point x="608" y="304" type="line"/>
      <point x="608" y="0" type="line"/>
      <point x="735" y="0" type="line"/>
    </contour>
  </outline>
</glyph>
<glyph name="guilsinglright" format="1">
  <advance width="727"/>
  <unicode hex="203A"/>
  <outline>
    <contour>
      <point x="118" y="260" type="line"/>
      <point x="628" y="545" type="line"/>
      <point x="628" y="959" type="line"/>
      <point x="118" y="1230" type="line"/>
      <point x="118" y="871" type="line"/>
      <point x="430" y="749" type="line"/>
      <point x="118" y="618" type="line"/>
    </contour>
  </outline>
</glyph>
<glyph name="notequal" format="1">
  <advance width="884"/>
  <unicode hex="2260"/>
  <outline>
    <contour>
      <point x="134" y="0" type="line"/>
      <point x="432" y="0" type="line"/>
      <point x="536.832" y="559" type="line"/>
      <point x="782" y="559" type="line"/>
      <point x="782" y="791" type="line"/>
      <point x="580.341" y="791" type="line"/>
      <point x="608.658" y="942" type="line"/>
      <point x="782" y="942" type="line"/>
      <point x="782" y="1166" type="line"/>
      <point x="650.666" y="1166" type="line"/>
      <point x="763" y="1765" type="line"/>
      <point x="454" y="1765" type="line"/>
      <point x="345.399" y="1166" type="line"/>
      <point x="103" y="1166" type="line"/>
      <point x="103" y="942" type="line"/>
      <point x="304.788" y="942" type="line"/>
      <point x="277.411" y="791" type="line"/>
      <point x="103" y="791" type="line"/>
      <point x="103" y="559" type="line"/>
      <point x="235.348" y="559" type="line"/>
    </contour>
  </outline>
</glyph>
<glyph name="uniFB02" format="1">
  <advance width="1247"/>
  <unicode hex="FB02"/>
  <outline>
    <contour>
      <point x="130.0" y="0.0" type="line"/>
      <point x="486.0" y="0.0" type="line"/>
      <point x="486.0" y="1190.0" type="line"/>
      <point x="600.0" y="1190.0" type="line"/>
      <point x="600.0" y="1440.0" type="line"/>
      <point x="486.0" y="1440.0" type="line"/>
      <point x="486.0" y="1535.25064087"/>
      <point x="510.442962646" y="1562.80892944"/>
      <point x="609.223861694" y="1562.80892944" type="curve" smooth="yes"/>
      <point x="655.725982666" y="1562.80892944"/>
      <point x="711.19342041" y="1555.67860413"/>
      <point x="768.0" y="1549.54101562" type="curve"/>
      <point x="768.0" y="0.0" type="line"/>
      <point x="1132.0" y="0.0" type="line"/>
      <point x="1132" y="1709" type="line"/>
      <point x="987.21522522" y="1748.08551025"/>
      <point x="779.206054688" y="1781.15332031"/>
      <point x="590.194335938" y="1781.15332031" type="curve" smooth="yes"/>
      <point x="270.965911865" y="1781.15332031"/>
      <point x="130.0" y="1715.78581238"/>
      <point x="130.0" y="1440.0" type="curve"/>
      <point x="34.0" y="1440.0" type="line"/>
      <point x="34.0" y="1190.0" type="line"/>
      <point x="130.0" y="1190.0" type="line"/>
    </contour>
  </outline>
</glyph>
<glyph name="uniFB04" format="1">
  <advance width="1900"/>
  <unicode hex="FB04"/>
  <outline>
    <contour>
      <point x="130.0" y="0.0" type="line"/>
      <point x="486.0" y="0.0" type="line"/>
      <point x="486.0" y="1190.0" type="line"/>
      <point x="783.0" y="1190.0" type="line"/>
      <point x="783.0" y="0.0" type="line"/>
      <point x="1139.0" y="0.0" type="line"/>
      <point x="1139.0" y="1190.0" type="line"/>
      <point x="1253.0" y="1190.0" type="line"/>
      <point x="1253.0" y="1440.0" type="line"/>
      <point x="1139" y="1440" type="line"/>
      <point x="1139" y="1539.00219727"/>
      <point x="1222.97177124" y="1560.24739075"/>
      <point x="1302.85450745" y="1560.24739075" type="curve" smooth="yes"/>
      <point x="1349.45549011" y="1560.24739075"/>
      <point x="1394.66490173" y="1553.01727295"/>
      <point x="1421.0" y="1549.77635193" type="curve"/>
      <point x="1421.0" y="0.0" type="line"/>
      <point x="1785.0" y="0.0" type="line"/>
      <point x="1785.0" y="1729.0" type="line"/>
      <point x="1587.68110657" y="1758.41766357"/>
      <point x="1407.21893311" y="1780.54884338"/>
      <point x="1255.47866821" y="1780.54884338" type="curve" smooth="yes"/>
      <point x="967.52204895" y="1780.54884338"/>
      <point x="783.0" y="1700.84907532"/>
      <point x="783.0" y="1440.0" type="curve"/>
      <point x="486.0" y="1440.0" type="line"/>
      <point x="486.0" y="1493.0" type="line" smooth="yes"/>
      <point x="486.0" y="1541.0"/>
      <point x="522.0" y="1551.0"/>
      <point x="557.0" y="1551.0" type="curve" smooth="yes"/>
      <point x="572.0" y="1551.0"/>
      <point x="588.0" y="1550.0"/>
      <point x="600.0" y="1548.0" type="curve"/>
      <point x="600.0" y="1749.0" type="line"/>
      <point x="554.0" y="1768.0"/>
      <point x="490.0" y="1788.0"/>
      <point x="413.0" y="1788.0" type="curve" smooth="yes"/>
      <point x="252.0" y="1788.0"/>
      <point x="130.0" y="1697.0"/>
      <point x="130.0" y="1536.0" type="curve" smooth="yes"/>
      <point x="130.0" y="1440.0" type="line"/>
      <point x="34.0" y="1440.0" type="line"/>
      <point x="34.0" y="1190.0" type="line"/>
      <point x="130.0" y="1190.0" type="line"/>
    </contour>
  </outline>
</glyph>
<glyph name="A.001" format="1">
  <advance width="916"/>
  <outline>
    <contour>
      <point x="74" y="0" type="line"/>
      <point x="352" y="1760" type="line"/>
      <point x="536" y="1760" type="line"/>
      <point x="842" y="0" type="line"/>
      <point x="681" y="0" type="line"/>
      <point x="449" y="1447" type="line"/>
      <point x="447" y="1447" type="line"/>
      <point x="234" y="0" type="line"/>
    </contour>
    <contour>
      <point x="256" y="350" type="line"/>
      <point x="256" y="488" type="line"/>
      <point x="657" y="488" type="line"/>
      <point x="657" y="350" type="line"/>
    </contour>
    <contour>
      <point x="458" y="0" type="move" name="top"/>
    </contour>
    <contour>
      <point x="824" y="10" type="move" name="ogonek"/>
    </contour>
  </outline>
</glyph>
